# Blender 4.0.2
# www.blender.org
o Cube
v 0.274781 0.000218 -0.274781
v 0.272316 1.972499 -0.263536
v 0.274781 0.000218 0.274781
v 0.270332 1.972499 0.265954
v -0.274781 0.000218 -0.274781
v -0.264184 1.971601 -0.259567
v -0.274781 0.000218 0.274781
v -0.267354 1.971601 0.263970
v 0.384065 1.140443 -0.284925
v 0.384065 1.140443 0.284925
v -0.384065 1.140443 0.284925
v -0.384065 1.140443 -0.284925
v 0.275790 1.505671 -0.271750
v 0.273982 1.505092 0.273673
v -0.276079 1.504321 0.271865
v -0.270655 1.504900 -0.268134
v 0.236876 0.498756 0.285437
v -0.236876 0.498756 0.285437
v -0.236876 0.498756 -0.285437
v 0.236876 0.498756 -0.285437
v 0.149275 1.390950 0.149437
v -0.149469 1.390756 0.149437
v -0.149469 1.390756 -0.149437
v 0.149275 1.390950 -0.149437
v 0.143649 1.325191 0.138292
v -0.143649 1.325191 0.138292
v -0.143649 1.325191 -0.138292
v 0.143649 1.325191 -0.138292
v 0.290937 0.000433 0.139607
v 0.296481 0.000507 0.000000
v 0.290937 0.000433 -0.139607
v 0.290436 1.616122 -0.285762
v 0.295660 1.748111 -0.290986
v 0.290901 1.877728 -0.284260
v 0.293372 1.993439 -0.152803
v 0.299629 2.000253 0.000000
v 0.292843 1.993439 0.153448
v 0.237526 0.367879 0.281541
v 0.249328 0.242595 0.279014
v 0.257058 0.117378 0.272113
v -0.140097 0.000466 0.291924
v 0.000000 0.000552 0.297843
v 0.140097 0.000466 0.291924
v 0.155948 1.993034 0.290587
v 0.000000 2.000187 0.299110
v -0.155326 1.993034 0.290058
v -0.237526 0.367879 0.281541
v -0.249328 0.242595 0.279014
v -0.257058 0.117378 0.272113
v -0.290937 0.000433 -0.139607
v -0.296481 0.000507 0.000000
v -0.290937 0.000433 0.139607
v -0.286635 1.991138 0.152919
v -0.292410 1.997278 0.000000
v -0.286199 1.991138 -0.151745
v -0.237526 0.367879 -0.281541
v -0.249328 0.242595 -0.279014
v -0.257058 0.117378 -0.272113
v 0.140097 0.000466 -0.291924
v 0.000000 0.000552 -0.297843
v -0.140097 0.000466 -0.291924
v -0.154890 1.993034 -0.288489
v 0.000000 2.000187 -0.298599
v 0.156478 1.993034 -0.289547
v 0.273789 0.657355 -0.289945
v 0.322556 0.822815 -0.296657
v 0.366550 0.990233 -0.298158
v 0.198567 1.285533 0.169043
v 0.267734 1.247813 0.210872
v 0.336221 1.207875 0.252521
v -0.198567 1.285533 0.169043
v -0.267734 1.247813 0.210872
v -0.336221 1.207875 0.252521
v -0.198567 1.285533 -0.169043
v -0.267734 1.247813 -0.210872
v -0.336221 1.207875 -0.252521
v -0.210343 1.153883 -0.337639
v 0.000000 1.161156 -0.351387
v 0.210343 1.153883 -0.337639
v -0.435518 1.145591 0.153117
v -0.444241 1.149631 0.000000
v -0.435518 1.145591 -0.153117
v 0.210343 1.153883 0.337639
v 0.000000 1.161156 0.351387
v -0.210343 1.153883 0.337639
v 0.435518 1.145591 -0.153117
v 0.444241 1.149631 0.000000
v 0.435518 1.145591 0.153117
v 0.179532 1.413196 -0.179532
v 0.215988 1.434684 -0.215988
v 0.250485 1.458509 -0.249427
v 0.288564 1.877728 0.286713
v 0.293323 1.748111 0.293323
v 0.288099 1.616122 0.288099
v -0.289750 1.877728 0.284376
v -0.295660 1.748111 0.290986
v -0.290436 1.616122 0.285762
v -0.283889 1.877728 -0.279586
v -0.288649 1.748111 -0.286312
v -0.283425 1.616122 -0.281087
v -0.150061 1.498747 -0.315095
v 0.000000 1.494721 -0.325681
v 0.151648 1.498747 -0.316153
v -0.319649 1.496375 0.150590
v -0.328831 1.491656 0.000000
v -0.318061 1.496375 -0.149532
v 0.151119 1.496770 0.317078
v 0.000000 1.492167 0.326192
v -0.151648 1.496770 0.316548
v 0.318661 1.499010 -0.150590
v 0.327554 1.495062 0.000000
v 0.318131 1.499010 0.151119
v 0.366550 0.990233 0.298158
v 0.322556 0.822815 0.296657
v 0.273789 0.657355 0.289945
v -0.366550 0.990233 0.298158
v -0.322556 0.822815 0.296657
v -0.273789 0.657355 0.289945
v -0.366550 0.990233 -0.298158
v -0.322556 0.822815 -0.296657
v -0.273789 0.657355 -0.289945
v 0.257058 0.117378 -0.272113
v 0.249328 0.242595 -0.279014
v 0.237526 0.367879 -0.281541
v 0.281489 0.495438 -0.155903
v 0.293765 0.493688 -0.000000
v 0.281489 0.495438 0.155902
v 0.126886 0.497293 0.326994
v 0.000000 0.496266 0.335431
v -0.126886 0.497293 0.326994
v -0.281489 0.495438 0.155902
v -0.293765 0.493688 0.000000
v -0.281489 0.495438 -0.155902
v -0.126886 0.497293 -0.326994
v 0.000000 0.496266 -0.335431
v 0.126886 0.497293 -0.326994
v 0.249956 1.458509 0.249956
v 0.215988 1.434684 0.215988
v 0.179532 1.413196 0.179532
v -0.250485 1.458509 0.249427
v -0.215988 1.434684 0.215988
v -0.179532 1.413196 0.179532
v -0.248898 1.458509 -0.248369
v -0.215988 1.434684 -0.215988
v -0.179532 1.413196 -0.179532
v 0.133763 1.345371 -0.133108
v 0.136109 1.360133 -0.135480
v 0.139740 1.374410 -0.139411
v 0.165277 1.386089 -0.081064
v 0.167687 1.382376 0.000000
v 0.165277 1.386089 0.081064
v 0.081042 1.385479 0.165956
v 0.000000 1.382412 0.168137
v -0.081042 1.385479 0.165956
v -0.166172 1.385505 0.081064
v -0.168384 1.382376 0.000000
v -0.166172 1.385505 -0.081064
v -0.081042 1.385290 -0.165557
v 0.000000 1.382224 -0.167738
v 0.081042 1.385290 -0.165557
v 0.139740 1.374599 0.139810
v 0.136109 1.360214 0.136148
v 0.133763 1.345560 0.133507
v -0.140166 1.374482 0.139810
v -0.136457 1.360214 0.136148
v -0.133880 1.345366 0.133507
v -0.140166 1.374294 -0.139411
v -0.136457 1.360133 -0.135480
v -0.133880 1.345178 -0.133108
v 0.336221 1.207875 -0.252521
v 0.267734 1.247813 -0.210872
v 0.198567 1.285533 -0.169043
v -0.077367 1.328711 -0.156182
v 0.000000 1.331020 -0.159710
v 0.077367 1.328711 -0.156182
v -0.162818 1.330866 0.075274
v -0.166798 1.334089 0.000000
v -0.162818 1.330866 -0.075274
v 0.077367 1.328900 0.156581
v 0.000000 1.331208 0.160109
v -0.077367 1.328900 0.156581
v 0.162701 1.331059 -0.075274
v 0.166721 1.334515 0.000000
v 0.162701 1.331059 0.075274
v 0.380040 1.214170 -0.136079
v 0.387576 1.218457 0.000000
v 0.380040 1.214170 0.136079
v 0.303157 1.254608 -0.114026
v 0.309387 1.258807 0.000000
v 0.303157 1.254608 0.114026
v 0.225380 1.292311 -0.091712
v 0.230246 1.296184 0.000000
v 0.225380 1.292311 0.091712
v 0.183350 1.220161 0.296826
v 0.000000 1.226741 0.307754
v -0.183350 1.220161 0.296826
v 0.145581 1.256951 0.244989
v 0.000000 1.262032 0.252786
v -0.145581 1.256951 0.244989
v 0.107658 1.291643 0.193961
v 0.000000 1.295240 0.199111
v -0.107658 1.291643 0.193961
v -0.380040 1.214170 0.136079
v -0.387576 1.218457 0.000000
v -0.380040 1.214170 -0.136079
v -0.303157 1.254608 0.114026
v -0.309387 1.258807 0.000000
v -0.303157 1.254608 -0.114026
v -0.225380 1.292311 0.091712
v -0.230246 1.296183 0.000000
v -0.225380 1.292311 -0.091712
v -0.183350 1.220161 -0.296826
v -0.000000 1.226741 -0.307754
v 0.183350 1.220161 -0.296826
v -0.145581 1.256951 -0.244989
v -0.000000 1.262032 -0.252786
v 0.145581 1.256951 -0.244989
v -0.107658 1.291643 -0.193961
v -0.000000 1.295240 -0.199111
v 0.107658 1.291643 -0.193961
v -0.072658 1.346996 -0.149043
v -0.000000 1.348089 -0.152273
v 0.072658 1.346996 -0.149043
v -0.074222 1.358715 -0.150426
v -0.000000 1.357911 -0.153401
v 0.074222 1.358715 -0.150426
v -0.076174 1.370104 -0.154207
v -0.000000 1.367537 -0.156524
v 0.076174 1.370104 -0.154207
v -0.152082 1.347542 0.073005
v -0.155940 1.348783 0.000000
v -0.152082 1.347542 -0.073005
v -0.154118 1.359147 0.074431
v -0.157793 1.358321 0.000000
v -0.154118 1.359147 -0.074431
v -0.157083 1.370867 0.076268
v -0.160028 1.368363 0.000000
v -0.157083 1.370867 -0.076268
v 0.072658 1.347720 0.151074
v 0.000000 1.349082 0.154489
v -0.072658 1.347720 0.151074
v 0.074222 1.359448 0.153291
v 0.000000 1.358839 0.156629
v -0.074222 1.359448 0.153291
v 0.076174 1.370828 0.156238
v 0.000000 1.368530 0.158739
v -0.076174 1.370828 0.156238
v 0.151375 1.348436 -0.073005
v 0.155253 1.350162 0.000000
v 0.151375 1.348436 0.073005
v 0.152466 1.359418 -0.074431
v 0.156061 1.358266 0.000000
v 0.152466 1.359418 0.074431
v 0.155200 1.370954 -0.076268
v 0.158159 1.367620 0.000000
v 0.155200 1.370954 0.076268
v -0.139425 0.111285 -0.309853
v 0.000000 0.106986 -0.316933
v 0.139425 0.111285 -0.309853
v -0.134779 0.236153 -0.318764
v 0.000000 0.232141 -0.326639
v 0.134779 0.236153 -0.318764
v -0.127871 0.364127 -0.321816
v 0.000000 0.361641 -0.329945
v 0.127871 0.364127 -0.321816
v -0.294392 0.110634 0.147726
v -0.301850 0.106096 0.000000
v -0.294392 0.110634 -0.147726
v -0.289863 0.233968 0.151721
v -0.299223 0.229109 0.000000
v -0.289863 0.233968 -0.151721
v -0.280518 0.361297 0.153442
v -0.291582 0.357709 0.000000
v -0.280518 0.361297 -0.153442
v 0.139425 0.111285 0.309853
v 0.000000 0.106986 0.316933
v -0.139425 0.111285 0.309853
v 0.134779 0.236153 0.318764
v 0.000000 0.232141 0.326639
v -0.134779 0.236153 0.318764
v 0.127871 0.364127 0.321816
v 0.000000 0.361641 0.329945
v -0.127871 0.364127 0.321816
v 0.294392 0.110634 -0.147726
v 0.301850 0.106096 0.000000
v 0.294392 0.110634 0.147726
v 0.289863 0.233968 -0.151721
v 0.299223 0.229109 0.000000
v 0.289863 0.233968 0.151721
v 0.280518 0.361297 -0.153442
v 0.291582 0.357709 0.000000
v 0.280518 0.361297 0.153442
v 0.200571 1.406716 -0.097422
v 0.203670 1.402671 0.000000
v 0.200571 1.406716 0.097422
v 0.243335 1.426564 -0.117209
v 0.247692 1.421848 0.000000
v 0.243335 1.426564 0.117209
v 0.285213 1.450670 -0.136782
v 0.291352 1.445302 0.000000
v 0.285213 1.450670 0.136782
v 0.097422 1.406523 0.200765
v 0.000000 1.402671 0.203670
v -0.097422 1.406523 0.200765
v 0.117209 1.426564 0.243335
v 0.000000 1.421848 0.247692
v -0.117209 1.426564 0.243335
v 0.136782 1.450014 0.284905
v 0.000000 1.444647 0.291044
v -0.136782 1.450014 0.284905
v -0.200765 1.406523 0.097422
v -0.203670 1.402671 0.000000
v -0.200765 1.406523 -0.097422
v -0.243335 1.426564 0.117209
v -0.247692 1.421848 0.000000
v -0.243335 1.426564 -0.117209
v -0.285502 1.449898 0.136782
v -0.291642 1.444531 0.000000
v -0.285502 1.449898 -0.136782
v -0.097422 1.406523 -0.200765
v 0.000000 1.402671 -0.203670
v 0.097422 1.406523 -0.200765
v -0.117209 1.426564 -0.243335
v 0.000000 1.421848 -0.247692
v 0.117209 1.426564 -0.243335
v -0.136782 1.450592 -0.284789
v 0.000000 1.445225 -0.290928
v 0.136782 1.450592 -0.284789
v 0.322095 0.657778 -0.157651
v 0.334302 0.658031 -0.000000
v 0.322095 0.657778 0.157651
v 0.373528 0.826148 -0.160521
v 0.385059 0.828186 -0.000000
v 0.373528 0.826148 0.160521
v 0.418685 0.995144 -0.160652
v 0.428997 0.998493 -0.000000
v 0.418685 0.995144 0.160652
v 0.147766 0.658108 0.335603
v 0.000000 0.658475 0.345956
v -0.147766 0.658108 0.335603
v 0.175054 0.827154 0.347603
v 0.000000 0.829564 0.360122
v -0.175054 0.827154 0.347603
v 0.199813 0.999688 0.352427
v 0.000000 1.004777 0.366374
v -0.199813 0.999688 0.352427
v -0.322095 0.657778 0.157651
v -0.334302 0.658031 0.000000
v -0.322095 0.657778 -0.157651
v -0.373528 0.826148 0.160521
v -0.385059 0.828186 0.000000
v -0.373528 0.826148 -0.160521
v -0.418685 0.995144 0.160652
v -0.428997 0.998493 0.000000
v -0.418685 0.995144 -0.160652
v -0.147766 0.658108 -0.335603
v 0.000000 0.658475 -0.345956
v 0.147766 0.658108 -0.335603
v -0.175054 0.827154 -0.347603
v 0.000000 0.829564 -0.360122
v 0.175054 0.827154 -0.347603
v -0.199813 0.999688 -0.352427
v -0.000000 1.004777 -0.366374
v 0.199813 0.999688 -0.352427
v -0.162426 2.038090 0.161724
v -0.166846 2.049788 0.000000
v -0.162426 2.038090 -0.161609
v 0.000000 2.051448 0.165230
v 0.000000 2.065002 0.000000
v 0.000000 2.051448 -0.165115
v 0.164061 2.038764 0.161724
v 0.168481 2.050462 0.000000
v 0.164061 2.038764 -0.161609
v 0.153507 0.000823 0.149436
v 0.158170 0.000947 0.000000
v 0.153507 0.000823 -0.149436
v 0.000000 0.001001 0.153141
v 0.000000 0.001159 0.000000
v 0.000000 0.001001 -0.153141
v -0.153507 0.000823 0.149436
v -0.158170 0.000947 0.000000
v -0.153507 0.000823 -0.149436
v -0.157979 1.612639 -0.339612
v 0.000000 1.609623 -0.354101
v 0.159567 1.612639 -0.340670
v -0.160719 1.750011 -0.348080
v 0.000000 1.751198 -0.363323
v 0.162307 1.750011 -0.349138
v -0.158368 1.885415 -0.337049
v 0.000000 1.890185 -0.350240
v 0.159955 1.885415 -0.338107
v -0.342441 1.611946 0.158509
v -0.354814 1.608929 0.000000
v -0.340854 1.611946 -0.157450
v -0.350196 1.750011 0.161249
v -0.363323 1.751198 0.000000
v -0.348609 1.750011 -0.160190
v -0.337574 1.884860 0.158897
v -0.348649 1.889630 0.000000
v -0.335987 1.884860 -0.157839
v 0.159038 1.612061 0.341315
v 0.000000 1.609044 0.354217
v -0.159567 1.612061 0.340786
v 0.161778 1.750011 0.349667
v 0.000000 1.751198 0.363323
v -0.162307 1.750011 0.349138
v 0.159426 1.885415 0.338751
v 0.000000 1.890185 0.350356
v -0.159955 1.885415 0.338222
v 0.342152 1.612717 -0.158509
v 0.354525 1.609700 0.000000
v 0.341623 1.612717 0.159038
v 0.350196 1.750011 -0.161249
v 0.363323 1.751198 0.000000
v 0.349667 1.750011 0.161778
v 0.339209 1.885533 -0.158897
v 0.350284 1.890303 0.000000
v 0.338680 1.885533 0.159426
vn 0.8941 0.3235 0.3096
vn -0.3318 0.3435 0.8786
vn -0.8797 0.3478 -0.3244
vn 0.3245 0.3378 -0.8835
vn 0.0026 -1.0000 0.0023
vn 0.2865 0.9133 -0.2895
vn 0.3029 0.0596 -0.9512
vn -0.9312 -0.0819 -0.3551
vn -0.3029 0.0596 0.9512
vn 0.9312 -0.0819 0.3551
vn 0.2946 -0.5602 -0.7742
vn -0.7644 -0.5593 -0.3206
vn -0.2956 -0.5749 0.7630
vn 0.7643 -0.5753 0.2914
vn 0.9466 -0.0089 0.3222
vn -0.3496 -0.0300 0.9364
vn -0.9466 -0.0089 -0.3222
vn 0.3496 -0.0300 -0.9364
vn 0.7781 -0.5870 0.2234
vn -0.2322 -0.5901 0.7732
vn -0.7821 -0.5759 -0.2379
vn 0.2241 -0.6125 -0.7580
vn 0.2109 0.7710 -0.6010
vn -0.4734 0.8502 -0.2305
vn -0.2135 0.7696 0.6018
vn 0.4737 0.8497 0.2314
vn 0.7040 0.6438 0.2999
vn 0.4034 0.8918 0.2046
vn 0.3749 0.9042 0.2044
vn 0.7040 0.6438 -0.2999
vn 0.7695 0.6357 -0.0616
vn 0.7695 0.6357 0.0616
vn 0.4034 0.8918 -0.2046
vn 0.4551 0.8887 -0.0552
vn 0.4551 0.8887 0.0552
vn 0.3749 0.9042 -0.2044
vn 0.4241 0.9037 -0.0583
vn 0.4241 0.9037 0.0583
vn 0.4737 0.8497 -0.2314
vn 0.5140 0.8554 -0.0649
vn 0.5140 0.8554 0.0649
vn -0.2742 0.5754 0.7705
vn -0.2019 0.8571 0.4740
vn -0.1892 0.8682 0.4588
vn 0.2742 0.5754 0.7705
vn 0.0715 0.5483 0.8332
vn -0.0715 0.5483 0.8332
vn 0.2019 0.8571 0.4740
vn 0.0606 0.8372 0.5436
vn -0.0606 0.8372 0.5436
vn 0.1892 0.8682 0.4588
vn 0.0561 0.8468 0.5289
vn -0.0561 0.8468 0.5289
vn 0.2135 0.7696 0.6018
vn 0.0552 0.7316 0.6795
vn -0.0552 0.7316 0.6795
vn -0.7040 0.6438 -0.2999
vn -0.4034 0.8918 -0.2046
vn -0.3749 0.9042 -0.2044
vn -0.7040 0.6438 0.2999
vn -0.7695 0.6357 0.0616
vn -0.7695 0.6357 -0.0616
vn -0.4034 0.8918 0.2046
vn -0.4551 0.8887 0.0552
vn -0.4551 0.8887 -0.0552
vn -0.3749 0.9042 0.2044
vn -0.4241 0.9037 0.0583
vn -0.4241 0.9037 -0.0583
vn -0.4734 0.8502 0.2305
vn -0.5116 0.8569 0.0635
vn -0.5116 0.8569 -0.0635
vn 0.2742 0.5754 -0.7705
vn 0.2019 0.8571 -0.4740
vn 0.1892 0.8682 -0.4588
vn -0.2742 0.5754 -0.7705
vn -0.0715 0.5483 -0.8332
vn 0.0715 0.5483 -0.8332
vn -0.2019 0.8571 -0.4740
vn -0.0606 0.8372 -0.5436
vn 0.0606 0.8372 -0.5436
vn -0.1892 0.8682 -0.4588
vn -0.0561 0.8468 -0.5289
vn 0.0561 0.8468 -0.5289
vn -0.2109 0.7710 -0.6010
vn -0.0551 0.7368 -0.6738
vn 0.0551 0.7368 -0.6738
vn 0.2517 0.3806 -0.8898
vn 0.2397 -0.1709 -0.9557
vn 0.2321 -0.3259 -0.9165
vn -0.2519 0.3817 -0.8893
vn -0.0502 0.3864 -0.9210
vn 0.0502 0.3864 -0.9210
vn -0.2385 -0.1716 -0.9559
vn -0.0417 -0.1186 -0.9921
vn 0.0417 -0.1186 -0.9921
vn -0.2304 -0.3276 -0.9163
vn -0.0404 -0.3153 -0.9481
vn 0.0404 -0.3153 -0.9481
vn -0.2219 -0.6120 -0.7591
vn -0.0444 -0.6067 -0.7937
vn 0.0444 -0.6067 -0.7937
vn -0.8125 0.5113 -0.2800
vn -0.9396 -0.2027 -0.2758
vn -0.9175 -0.2958 -0.2660
vn -0.8155 0.5072 0.2789
vn -0.8202 0.5689 0.0605
vn -0.8202 0.5689 -0.0605
vn -0.9395 -0.2060 0.2738
vn -0.9817 -0.1839 0.0496
vn -0.9817 -0.1839 -0.0496
vn -0.9191 -0.2920 0.2646
vn -0.9706 -0.2359 0.0479
vn -0.9706 -0.2359 -0.0479
vn -0.7819 -0.5762 0.2380
vn -0.8497 -0.5252 0.0467
vn -0.8497 -0.5252 -0.0467
vn -0.2696 0.3381 0.9017
vn -0.2619 -0.2129 0.9413
vn -0.2553 -0.2937 0.9212
vn 0.2694 0.3372 0.9020
vn 0.0514 0.2958 0.9539
vn -0.0514 0.2958 0.9539
vn 0.2632 -0.2123 0.9411
vn 0.0440 -0.2017 0.9785
vn -0.0440 -0.2017 0.9785
vn 0.2571 -0.2920 0.9212
vn 0.0423 -0.2369 0.9706
vn -0.0423 -0.2369 0.9706
vn 0.2344 -0.5907 0.7721
vn 0.0438 -0.5612 0.8265
vn -0.0438 -0.5612 0.8265
vn 0.8144 0.5096 0.2778
vn 0.9504 -0.1688 0.2613
vn 0.9280 -0.2800 0.2457
vn 0.8114 0.5136 -0.2789
vn 0.8193 0.5699 -0.0635
vn 0.8193 0.5699 0.0635
vn 0.9504 -0.1657 -0.2633
vn 0.9935 -0.1026 -0.0500
vn 0.9935 -0.1026 0.0500
vn 0.9266 -0.2837 -0.2469
vn 0.9721 -0.2292 -0.0491
vn 0.9721 -0.2292 0.0491
vn 0.7785 -0.5866 -0.2233
vn 0.8311 -0.5536 -0.0532
vn 0.8311 -0.5536 0.0532
vn 0.2134 -0.0481 -0.9758
vn 0.3184 -0.0441 -0.9469
vn 0.3360 0.0041 -0.9419
vn -0.2134 -0.0481 -0.9758
vn -0.0483 -0.1676 -0.9847
vn 0.0483 -0.1676 -0.9847
vn -0.3184 -0.0441 -0.9469
vn -0.0565 -0.0731 -0.9957
vn 0.0565 -0.0731 -0.9957
vn -0.3360 0.0041 -0.9419
vn -0.0614 -0.0230 -0.9979
vn 0.0614 -0.0230 -0.9979
vn -0.3496 -0.0300 -0.9364
vn -0.0654 -0.0395 -0.9971
vn 0.0654 -0.0395 -0.9971
vn -0.9781 0.0566 -0.2001
vn -0.9553 0.0343 -0.2935
vn -0.9491 0.0743 -0.3060
vn -0.9781 0.0566 0.2001
vn -0.9980 -0.0425 0.0458
vn -0.9980 -0.0425 -0.0458
vn -0.9553 0.0343 0.2935
vn -0.9981 0.0281 0.0552
vn -0.9981 0.0281 -0.0552
vn -0.9491 0.0743 0.3060
vn -0.9957 0.0657 0.0648
vn -0.9957 0.0657 -0.0648
vn -0.9466 -0.0089 0.3222
vn -0.9971 -0.0123 0.0754
vn -0.9971 -0.0123 -0.0754
vn -0.2134 -0.0481 0.9758
vn -0.3184 -0.0441 0.9469
vn -0.3360 0.0041 0.9419
vn 0.2134 -0.0481 0.9758
vn 0.0483 -0.1676 0.9847
vn -0.0483 -0.1676 0.9847
vn 0.3184 -0.0441 0.9469
vn 0.0565 -0.0731 0.9957
vn -0.0565 -0.0731 0.9957
vn 0.3360 0.0041 0.9419
vn 0.0614 -0.0230 0.9979
vn -0.0614 -0.0230 0.9979
vn 0.3496 -0.0300 0.9364
vn 0.0654 -0.0395 0.9971
vn -0.0654 -0.0395 0.9971
vn 0.9781 0.0566 0.2001
vn 0.9553 0.0343 0.2935
vn 0.9491 0.0743 0.3060
vn 0.9781 0.0566 -0.2001
vn 0.9980 -0.0425 -0.0458
vn 0.9980 -0.0425 0.0458
vn 0.9553 0.0343 -0.2935
vn 0.9981 0.0281 -0.0552
vn 0.9981 0.0281 0.0552
vn 0.9491 0.0743 -0.3060
vn 0.9957 0.0657 -0.0648
vn 0.9957 0.0657 0.0648
vn 0.9466 -0.0089 -0.3222
vn 0.9971 -0.0123 -0.0754
vn 0.9971 -0.0123 0.0754
vn 0.4482 -0.8764 0.1764
vn 0.3583 -0.9180 0.1699
vn 0.4239 -0.8851 0.1919
vn 0.4482 -0.8764 -0.1764
vn 0.4880 -0.8712 -0.0529
vn 0.4880 -0.8712 0.0529
vn 0.3583 -0.9180 -0.1699
vn 0.3998 -0.9152 -0.0513
vn 0.3998 -0.9152 0.0513
vn 0.4232 -0.8857 -0.1911
vn 0.4757 -0.8779 -0.0545
vn 0.4757 -0.8779 0.0545
vn 0.7627 -0.5786 -0.2890
vn 0.8098 -0.5835 -0.0613
vn 0.8115 -0.5809 0.0627
vn -0.1830 -0.8723 0.4535
vn -0.1716 -0.9171 0.3598
vn -0.1934 -0.8869 0.4196
vn 0.1837 -0.8736 0.4507
vn 0.0478 -0.8662 0.4975
vn -0.0478 -0.8662 0.4975
vn 0.1716 -0.9171 0.3598
vn 0.0501 -0.9140 0.4025
vn -0.0501 -0.9140 0.4025
vn 0.1927 -0.8874 0.4188
vn 0.0544 -0.8821 0.4679
vn -0.0544 -0.8821 0.4679
vn 0.2940 -0.5771 0.7619
vn 0.0631 -0.5863 0.8076
vn -0.0645 -0.5836 0.8095
vn -0.4541 -0.8718 -0.1836
vn -0.3598 -0.9171 -0.1716
vn -0.4195 -0.8859 -0.1980
vn -0.4541 -0.8718 0.1836
vn -0.5000 -0.8647 0.0482
vn -0.5000 -0.8647 -0.0482
vn -0.3598 -0.9171 0.1716
vn -0.4025 -0.9140 0.0501
vn -0.4025 -0.9140 -0.0501
vn -0.4141 -0.8896 0.1926
vn -0.4610 -0.8857 0.0542
vn -0.4610 -0.8857 -0.0542
vn -0.7460 -0.5980 0.2930
vn -0.7892 -0.6108 0.0635
vn -0.7955 -0.6021 -0.0682
vn 0.1836 -0.8737 -0.4506
vn 0.1716 -0.9171 -0.3598
vn 0.1924 -0.8840 -0.4259
vn -0.1828 -0.8724 -0.4534
vn -0.0478 -0.8666 -0.4967
vn 0.0478 -0.8666 -0.4967
vn -0.1716 -0.9171 -0.3598
vn -0.0501 -0.9140 -0.4025
vn 0.0501 -0.9140 -0.4025
vn -0.1972 -0.8807 -0.4306
vn -0.0546 -0.8766 -0.4781
vn 0.0546 -0.8766 -0.4781
vn -0.3138 -0.5326 -0.7860
vn -0.0665 -0.5595 -0.8262
vn 0.0631 -0.5661 -0.8219
vn 0.9168 -0.2278 0.3279
vn 0.9016 -0.2801 0.3295
vn 0.9102 -0.2428 0.3356
vn 0.9168 -0.2278 -0.3279
vn 0.9676 -0.2407 -0.0767
vn 0.9676 -0.2407 0.0767
vn 0.9016 -0.2801 -0.3295
vn 0.9549 -0.2888 -0.0692
vn 0.9549 -0.2888 0.0692
vn 0.9102 -0.2428 -0.3356
vn 0.9654 -0.2535 -0.0614
vn 0.9654 -0.2535 0.0614
vn 0.9312 -0.0819 -0.3551
vn 0.9929 -0.1042 -0.0578
vn 0.9929 -0.1042 0.0578
vn -0.3451 -0.1008 0.9331
vn -0.3282 -0.1270 0.9360
vn -0.3133 -0.0810 0.9462
vn 0.3451 -0.1008 0.9331
vn 0.0683 -0.0634 0.9957
vn -0.0683 -0.0634 0.9957
vn 0.3282 -0.1270 0.9360
vn 0.0697 -0.0821 0.9942
vn -0.0697 -0.0821 0.9942
vn 0.3133 -0.0810 0.9462
vn 0.0696 -0.0367 0.9969
vn -0.0696 -0.0367 0.9969
vn 0.3029 0.0596 0.9512
vn 0.0699 0.0929 0.9932
vn -0.0699 0.0929 0.9932
vn -0.9168 -0.2278 -0.3279
vn -0.9016 -0.2801 -0.3295
vn -0.9102 -0.2428 -0.3356
vn -0.9168 -0.2278 0.3279
vn -0.9676 -0.2407 0.0767
vn -0.9676 -0.2407 -0.0767
vn -0.9016 -0.2801 0.3295
vn -0.9549 -0.2888 0.0692
vn -0.9549 -0.2888 -0.0692
vn -0.9102 -0.2428 0.3356
vn -0.9654 -0.2535 0.0614
vn -0.9654 -0.2535 -0.0614
vn -0.9312 -0.0819 0.3551
vn -0.9929 -0.1042 0.0578
vn -0.9929 -0.1042 -0.0578
vn 0.3451 -0.1008 -0.9331
vn 0.3282 -0.1270 -0.9360
vn 0.3133 -0.0810 -0.9462
vn -0.3451 -0.1008 -0.9331
vn -0.0683 -0.0634 -0.9957
vn 0.0683 -0.0634 -0.9957
vn -0.3282 -0.1270 -0.9360
vn -0.0697 -0.0821 -0.9942
vn 0.0697 -0.0821 -0.9942
vn -0.3133 -0.0810 -0.9462
vn -0.0696 -0.0367 -0.9969
vn 0.0696 -0.0367 -0.9969
vn -0.3029 0.0596 -0.9512
vn -0.0699 0.0929 -0.9932
vn 0.0699 0.0929 -0.9932
vn -0.3135 0.9047 -0.2885
vn -0.0753 0.9345 -0.3479
vn 0.0715 0.9345 -0.3488
vn -0.3048 0.9105 0.2793
vn -0.3712 0.9263 0.0645
vn -0.3720 0.9259 -0.0653
vn -0.0740 0.9354 0.3456
vn -0.0870 0.9932 0.0779
vn -0.0870 0.9932 -0.0779
vn 0.0710 0.9350 0.3474
vn 0.0822 0.9936 0.0778
vn 0.0822 0.9936 -0.0779
vn 0.2865 0.9136 0.2887
vn 0.3461 0.9358 0.0673
vn 0.3456 0.9360 -0.0668
vn -0.0026 -1.0000 0.0023
vn -0.0010 -1.0000 0.0029
vn 0.0010 -1.0000 0.0029
vn -0.0026 -1.0000 -0.0023
vn -0.0030 -1.0000 -0.0008
vn -0.0030 -1.0000 0.0008
vn -0.0010 -1.0000 -0.0029
vn -0.0013 -1.0000 -0.0010
vn -0.0013 -1.0000 0.0010
vn 0.0010 -1.0000 -0.0029
vn 0.0013 -1.0000 -0.0010
vn 0.0013 -1.0000 0.0010
vn 0.0026 -1.0000 -0.0023
vn 0.0030 -1.0000 -0.0008
vn 0.0030 -1.0000 0.0008
vn 0.3629 -0.1931 -0.9116
vn 0.3930 -0.0583 -0.9177
vn 0.3914 0.0720 -0.9174
vn -0.3933 -0.1860 -0.9004
vn -0.0842 -0.2274 -0.9702
vn 0.0768 -0.2273 -0.9708
vn -0.4284 -0.0585 -0.9017
vn -0.0931 -0.0639 -0.9936
vn 0.0857 -0.0639 -0.9943
vn -0.4268 0.0719 -0.9015
vn -0.0900 0.0880 -0.9920
vn 0.0827 0.0879 -0.9927
vn -0.3616 0.3374 -0.8691
vn -0.0832 0.4179 -0.9047
vn 0.0764 0.4180 -0.9052
vn -0.8997 -0.1778 -0.3987
vn -0.9034 -0.0560 -0.4251
vn -0.9077 0.0738 -0.4131
vn -0.9144 -0.1840 0.3606
vn -0.9756 -0.2069 0.0732
vn -0.9747 -0.2070 -0.0837
vn -0.9222 -0.0556 0.3828
vn -0.9951 -0.0585 0.0797
vn -0.9942 -0.0586 -0.0901
vn -0.9244 0.0774 0.3735
vn -0.9920 0.0997 0.0769
vn -0.9912 0.0997 -0.0872
vn -0.8850 0.3627 0.2920
vn -0.8915 0.4484 0.0639
vn -0.8930 0.4446 -0.0701
vn -0.3647 -0.1889 0.9118
vn -0.3935 -0.0578 0.9175
vn -0.3928 0.0729 0.9167
vn 0.3597 -0.1910 0.9133
vn 0.0745 -0.2214 0.9723
vn -0.0775 -0.2215 0.9721
vn 0.3873 -0.0577 0.9201
vn 0.0827 -0.0628 0.9946
vn -0.0857 -0.0628 0.9943
vn 0.3852 0.0712 0.9201
vn 0.0797 0.0871 0.9930
vn -0.0827 0.0871 0.9928
vn 0.3181 0.3360 0.8865
vn 0.0736 0.4154 0.9067
vn -0.0766 0.4156 0.9063
vn 0.9130 -0.1887 0.3616
vn 0.9199 -0.0568 0.3881
vn 0.9218 0.0676 0.3817
vn 0.9148 -0.1905 -0.3561
vn 0.9734 -0.2176 -0.0719
vn 0.9731 -0.2177 0.0749
vn 0.9225 -0.0567 -0.3817
vn 0.9950 -0.0609 -0.0797
vn 0.9947 -0.0609 0.0827
vn 0.9244 0.0677 -0.3753
vn 0.9932 0.0875 -0.0767
vn 0.9930 0.0876 0.0797
vn 0.8960 0.3249 -0.3028
vn 0.9117 0.4056 -0.0658
vn 0.9115 0.4056 0.0686
vt 0.609177 0.187500
vt 0.625000 0.187500
vt 0.625000 0.250000
vt 0.609177 0.250000
vt 0.609177 0.437500
vt 0.625000 0.437500
vt 0.625000 0.500000
vt 0.609177 0.500000
vt 0.609177 0.687500
vt 0.625000 0.687500
vt 0.625000 0.750000
vt 0.609177 0.750000
vt 0.609177 0.937500
vt 0.625000 0.937500
vt 0.625000 1.000000
vt 0.609177 1.000000
vt 0.312500 0.687500
vt 0.375000 0.687500
vt 0.375000 0.750000
vt 0.312500 0.750000
vt 0.812500 0.687500
vt 0.875000 0.687500
vt 0.875000 0.750000
vt 0.812500 0.750000
vt 0.482991 0.937500
vt 0.498418 0.937500
vt 0.498418 1.000000
vt 0.482991 1.000000
vt 0.482991 0.687500
vt 0.498418 0.687500
vt 0.498418 0.750000
vt 0.482991 0.750000
vt 0.482991 0.437500
vt 0.498418 0.437500
vt 0.498418 0.500000
vt 0.482991 0.500000
vt 0.482991 0.187500
vt 0.498418 0.187500
vt 0.498418 0.250000
vt 0.482991 0.250000
vt 0.553797 0.937500
vt 0.561709 0.937500
vt 0.561709 1.000000
vt 0.553797 1.000000
vt 0.553797 0.687500
vt 0.561709 0.687500
vt 0.561709 0.750000
vt 0.553797 0.750000
vt 0.553797 0.437500
vt 0.561709 0.437500
vt 0.561709 0.500000
vt 0.553797 0.500000
vt 0.553797 0.187500
vt 0.561709 0.187500
vt 0.561709 0.250000
vt 0.553797 0.250000
vt 0.421282 0.187500
vt 0.436709 0.187500
vt 0.436709 0.250000
vt 0.421282 0.250000
vt 0.421282 0.437500
vt 0.436709 0.437500
vt 0.436709 0.500000
vt 0.421282 0.500000
vt 0.421282 0.687500
vt 0.436709 0.687500
vt 0.436709 0.750000
vt 0.421282 0.750000
vt 0.421282 0.937500
vt 0.436709 0.937500
vt 0.436709 1.000000
vt 0.421282 1.000000
vt 0.526108 0.187500
vt 0.530063 0.187500
vt 0.530063 0.250000
vt 0.526108 0.250000
vt 0.526108 0.437500
vt 0.530063 0.437500
vt 0.530063 0.500000
vt 0.526108 0.500000
vt 0.526108 0.687500
vt 0.530063 0.687500
vt 0.530063 0.750000
vt 0.526108 0.750000
vt 0.526108 0.937500
vt 0.530063 0.937500
vt 0.530063 1.000000
vt 0.526108 1.000000
vt 0.510285 0.937500
vt 0.514241 0.937500
vt 0.514241 1.000000
vt 0.510285 1.000000
vt 0.510285 0.687500
vt 0.514241 0.687500
vt 0.514241 0.750000
vt 0.510285 0.750000
vt 0.510285 0.437500
vt 0.514241 0.437500
vt 0.514241 0.500000
vt 0.510285 0.500000
vt 0.510285 0.187500
vt 0.514241 0.187500
vt 0.514241 0.250000
vt 0.510285 0.250000
vt 0.502373 0.187500
vt 0.502373 0.250000
vt 0.506329 0.187500
vt 0.506329 0.250000
vt 0.498418 0.000000
vt 0.502373 0.000000
vt 0.502373 0.062500
vt 0.498418 0.062500
vt 0.502373 0.125000
vt 0.498418 0.125000
vt 0.506329 0.000000
vt 0.506329 0.062500
vt 0.506329 0.125000
vt 0.510285 0.000000
vt 0.510285 0.062500
vt 0.510285 0.125000
vt 0.514241 0.000000
vt 0.514241 0.062500
vt 0.514241 0.125000
vt 0.502373 0.437500
vt 0.502373 0.500000
vt 0.506329 0.437500
vt 0.506329 0.500000
vt 0.502373 0.312500
vt 0.498418 0.312500
vt 0.502373 0.375000
vt 0.498418 0.375000
vt 0.506329 0.312500
vt 0.506329 0.375000
vt 0.510285 0.312500
vt 0.510285 0.375000
vt 0.514241 0.312500
vt 0.514241 0.375000
vt 0.502373 0.687500
vt 0.502373 0.750000
vt 0.506329 0.687500
vt 0.506329 0.750000
vt 0.502373 0.562500
vt 0.498418 0.562500
vt 0.502373 0.625000
vt 0.498418 0.625000
vt 0.506329 0.562500
vt 0.506329 0.625000
vt 0.510285 0.562500
vt 0.510285 0.625000
vt 0.514241 0.562500
vt 0.514241 0.625000
vt 0.502373 0.937500
vt 0.502373 1.000000
vt 0.506329 0.937500
vt 0.506329 1.000000
vt 0.502373 0.812500
vt 0.498418 0.812500
vt 0.502373 0.875000
vt 0.498418 0.875000
vt 0.506329 0.812500
vt 0.506329 0.875000
vt 0.510285 0.812500
vt 0.510285 0.875000
vt 0.514241 0.812500
vt 0.514241 0.875000
vt 0.518196 0.937500
vt 0.518196 1.000000
vt 0.522152 0.937500
vt 0.522152 1.000000
vt 0.518196 0.750000
vt 0.518196 0.812500
vt 0.518196 0.875000
vt 0.522152 0.750000
vt 0.522152 0.812500
vt 0.522152 0.875000
vt 0.526108 0.812500
vt 0.526108 0.875000
vt 0.530063 0.812500
vt 0.530063 0.875000
vt 0.518196 0.687500
vt 0.522152 0.687500
vt 0.518196 0.500000
vt 0.518196 0.562500
vt 0.518196 0.625000
vt 0.522152 0.500000
vt 0.522152 0.562500
vt 0.522152 0.625000
vt 0.526108 0.562500
vt 0.526108 0.625000
vt 0.530063 0.562500
vt 0.530063 0.625000
vt 0.518196 0.437500
vt 0.522152 0.437500
vt 0.518196 0.250000
vt 0.518196 0.312500
vt 0.518196 0.375000
vt 0.522152 0.250000
vt 0.522152 0.312500
vt 0.522152 0.375000
vt 0.526108 0.312500
vt 0.526108 0.375000
vt 0.530063 0.312500
vt 0.530063 0.375000
vt 0.518196 0.187500
vt 0.522152 0.187500
vt 0.518196 0.000000
vt 0.518196 0.062500
vt 0.518196 0.125000
vt 0.522152 0.000000
vt 0.522152 0.062500
vt 0.522152 0.125000
vt 0.526108 0.000000
vt 0.526108 0.062500
vt 0.526108 0.125000
vt 0.530063 0.000000
vt 0.530063 0.062500
vt 0.530063 0.125000
vt 0.375000 0.937500
vt 0.390427 0.937500
vt 0.390427 1.000000
vt 0.375000 1.000000
vt 0.405854 0.937500
vt 0.405854 1.000000
vt 0.390427 0.750000
vt 0.390427 0.812500
vt 0.375000 0.812500
vt 0.390427 0.875000
vt 0.375000 0.875000
vt 0.405854 0.750000
vt 0.405854 0.812500
vt 0.405854 0.875000
vt 0.421282 0.812500
vt 0.421282 0.875000
vt 0.436709 0.812500
vt 0.436709 0.875000
vt 0.390427 0.687500
vt 0.405854 0.687500
vt 0.375000 0.500000
vt 0.390427 0.500000
vt 0.390427 0.562500
vt 0.375000 0.562500
vt 0.390427 0.625000
vt 0.375000 0.625000
vt 0.405854 0.500000
vt 0.405854 0.562500
vt 0.405854 0.625000
vt 0.421282 0.562500
vt 0.421282 0.625000
vt 0.436709 0.562500
vt 0.436709 0.625000
vt 0.375000 0.437500
vt 0.390427 0.437500
vt 0.405854 0.437500
vt 0.375000 0.250000
vt 0.390427 0.250000
vt 0.390427 0.312500
vt 0.375000 0.312500
vt 0.390427 0.375000
vt 0.375000 0.375000
vt 0.405854 0.250000
vt 0.405854 0.312500
vt 0.405854 0.375000
vt 0.421282 0.312500
vt 0.421282 0.375000
vt 0.436709 0.312500
vt 0.436709 0.375000
vt 0.375000 0.187500
vt 0.390427 0.187500
vt 0.405854 0.187500
vt 0.375000 0.000000
vt 0.390427 0.000000
vt 0.390427 0.062500
vt 0.375000 0.062500
vt 0.390427 0.125000
vt 0.375000 0.125000
vt 0.405854 0.000000
vt 0.405854 0.062500
vt 0.405854 0.125000
vt 0.421282 0.000000
vt 0.421282 0.062500
vt 0.421282 0.125000
vt 0.436709 0.000000
vt 0.436709 0.062500
vt 0.436709 0.125000
vt 0.537975 0.187500
vt 0.537975 0.250000
vt 0.545886 0.187500
vt 0.545886 0.250000
vt 0.537975 0.000000
vt 0.537975 0.062500
vt 0.537975 0.125000
vt 0.545886 0.000000
vt 0.545886 0.062500
vt 0.545886 0.125000
vt 0.553797 0.000000
vt 0.553797 0.062500
vt 0.553797 0.125000
vt 0.561709 0.000000
vt 0.561709 0.062500
vt 0.561709 0.125000
vt 0.537975 0.437500
vt 0.537975 0.500000
vt 0.545886 0.437500
vt 0.545886 0.500000
vt 0.537975 0.312500
vt 0.537975 0.375000
vt 0.545886 0.312500
vt 0.545886 0.375000
vt 0.553797 0.312500
vt 0.553797 0.375000
vt 0.561709 0.312500
vt 0.561709 0.375000
vt 0.537975 0.687500
vt 0.537975 0.750000
vt 0.545886 0.687500
vt 0.545886 0.750000
vt 0.537975 0.562500
vt 0.537975 0.625000
vt 0.545886 0.562500
vt 0.545886 0.625000
vt 0.553797 0.562500
vt 0.553797 0.625000
vt 0.561709 0.562500
vt 0.561709 0.625000
vt 0.537975 0.937500
vt 0.537975 1.000000
vt 0.545886 0.937500
vt 0.545886 1.000000
vt 0.537975 0.812500
vt 0.537975 0.875000
vt 0.545886 0.812500
vt 0.545886 0.875000
vt 0.553797 0.812500
vt 0.553797 0.875000
vt 0.561709 0.812500
vt 0.561709 0.875000
vt 0.452136 0.187500
vt 0.452136 0.250000
vt 0.467563 0.187500
vt 0.467563 0.250000
vt 0.452136 0.000000
vt 0.452136 0.062500
vt 0.452136 0.125000
vt 0.467563 0.000000
vt 0.467563 0.062500
vt 0.467563 0.125000
vt 0.482991 0.000000
vt 0.482991 0.062500
vt 0.482991 0.125000
vt 0.452136 0.437500
vt 0.452136 0.500000
vt 0.467563 0.437500
vt 0.467563 0.500000
vt 0.452136 0.312500
vt 0.452136 0.375000
vt 0.467563 0.312500
vt 0.467563 0.375000
vt 0.482991 0.312500
vt 0.482991 0.375000
vt 0.452136 0.687500
vt 0.452136 0.750000
vt 0.467563 0.687500
vt 0.467563 0.750000
vt 0.452136 0.562500
vt 0.452136 0.625000
vt 0.467563 0.562500
vt 0.467563 0.625000
vt 0.482991 0.562500
vt 0.482991 0.625000
vt 0.452136 0.937500
vt 0.452136 1.000000
vt 0.467563 0.937500
vt 0.467563 1.000000
vt 0.452136 0.812500
vt 0.452136 0.875000
vt 0.467563 0.812500
vt 0.467563 0.875000
vt 0.482991 0.812500
vt 0.482991 0.875000
vt 0.687500 0.687500
vt 0.687500 0.750000
vt 0.750000 0.687500
vt 0.750000 0.750000
vt 0.687500 0.500000
vt 0.687500 0.562500
vt 0.625000 0.562500
vt 0.687500 0.625000
vt 0.625000 0.625000
vt 0.750000 0.500000
vt 0.750000 0.562500
vt 0.750000 0.625000
vt 0.812500 0.500000
vt 0.812500 0.562500
vt 0.812500 0.625000
vt 0.875000 0.500000
vt 0.875000 0.562500
vt 0.875000 0.625000
vt 0.125000 0.687500
vt 0.187500 0.687500
vt 0.187500 0.750000
vt 0.125000 0.750000
vt 0.250000 0.687500
vt 0.250000 0.750000
vt 0.125000 0.500000
vt 0.187500 0.500000
vt 0.187500 0.562500
vt 0.125000 0.562500
vt 0.187500 0.625000
vt 0.125000 0.625000
vt 0.250000 0.500000
vt 0.250000 0.562500
vt 0.250000 0.625000
vt 0.312500 0.500000
vt 0.312500 0.562500
vt 0.312500 0.625000
vt 0.577532 0.937500
vt 0.577532 1.000000
vt 0.593354 0.937500
vt 0.593354 1.000000
vt 0.577532 0.750000
vt 0.577532 0.812500
vt 0.577532 0.875000
vt 0.593354 0.750000
vt 0.593354 0.812500
vt 0.593354 0.875000
vt 0.609177 0.812500
vt 0.609177 0.875000
vt 0.625000 0.812500
vt 0.625000 0.875000
vt 0.577532 0.687500
vt 0.593354 0.687500
vt 0.577532 0.500000
vt 0.577532 0.562500
vt 0.577532 0.625000
vt 0.593354 0.500000
vt 0.593354 0.562500
vt 0.593354 0.625000
vt 0.609177 0.562500
vt 0.609177 0.625000
vt 0.577532 0.437500
vt 0.593354 0.437500
vt 0.577532 0.250000
vt 0.577532 0.312500
vt 0.577532 0.375000
vt 0.593354 0.250000
vt 0.593354 0.312500
vt 0.593354 0.375000
vt 0.609177 0.312500
vt 0.609177 0.375000
vt 0.625000 0.312500
vt 0.625000 0.375000
vt 0.577532 0.187500
vt 0.593354 0.187500
vt 0.577532 0.000000
vt 0.577532 0.062500
vt 0.577532 0.125000
vt 0.593354 0.000000
vt 0.593354 0.062500
vt 0.593354 0.125000
vt 0.609177 0.000000
vt 0.609177 0.062500
vt 0.609177 0.125000
vt 0.625000 0.000000
vt 0.625000 0.062500
vt 0.625000 0.125000
s 0
f 418/1/1 37/2/1 4/3/1 92/4/1
f 409/5/2 46/6/2 8/7/2 95/8/2
f 400/9/3 55/10/3 6/11/3 98/12/3
f 391/13/4 64/14/4 2/15/4 34/16/4
f 382/17/5 50/18/5 5/19/5 61/20/5
f 373/21/6 35/22/6 2/23/6 64/24/6
f 364/25/7 79/26/7 9/27/7 67/28/7
f 355/29/8 82/30/8 12/31/8 119/32/8
f 346/33/9 85/34/9 11/35/9 116/36/9
f 337/37/10 88/38/10 10/39/10 113/40/10
f 328/41/11 103/42/11 13/43/11 91/44/11
f 319/45/12 106/46/12 16/47/12 143/48/12
f 310/49/13 109/50/13 15/51/13 140/52/13
f 301/53/14 112/54/14 14/55/14 137/56/14
f 292/57/15 127/58/15 17/59/15 38/60/15
f 283/61/16 130/62/16 18/63/16 47/64/16
f 274/65/17 133/66/17 19/67/17 56/68/17
f 265/69/18 136/70/18 20/71/18 124/72/18
f 256/73/19 151/74/19 21/75/19 161/76/19
f 247/77/20 154/78/20 22/79/20 164/80/20
f 238/81/21 157/82/21 23/83/21 167/84/21
f 229/85/22 160/86/22 24/87/22 148/88/22
f 220/89/23 175/90/23 28/91/23 172/92/23
f 211/93/24 178/94/24 27/95/24 74/96/24
f 202/97/25 181/98/25 26/99/25 71/100/25
f 193/101/26 184/102/26 25/103/26 68/104/26
f 88/38/27 187/105/27 70/106/27 10/39/27
f 187/105/28 190/107/28 69/108/28 70/106/28
f 190/107/29 193/101/29 68/104/29 69/108/29
f 9/109/30 170/110/30 185/111/30 86/112/30
f 86/112/31 185/111/31 186/113/31 87/114/31
f 87/114/32 186/113/32 187/105/32 88/38/32
f 170/110/33 171/115/33 188/116/33 185/111/33
f 185/111/34 188/116/34 189/117/34 186/113/34
f 186/113/35 189/117/35 190/107/35 187/105/35
f 171/115/36 172/118/36 191/119/36 188/116/36
f 188/116/37 191/119/37 192/120/37 189/117/37
f 189/117/38 192/120/38 193/101/38 190/107/38
f 172/118/39 28/121/39 182/122/39 191/119/39
f 191/119/40 182/122/40 183/123/40 192/120/40
f 192/120/41 183/123/41 184/102/41 193/101/41
f 85/34/42 196/124/42 73/125/42 11/35/42
f 196/124/43 199/126/43 72/127/43 73/125/43
f 199/126/44 202/97/44 71/100/44 72/127/44
f 10/39/45 70/106/45 194/128/45 83/129/45
f 83/129/46 194/128/46 195/130/46 84/131/46
f 84/131/47 195/130/47 196/124/47 85/34/47
f 70/106/48 69/108/48 197/132/48 194/128/48
f 194/128/49 197/132/49 198/133/49 195/130/49
f 195/130/50 198/133/50 199/126/50 196/124/50
f 69/108/51 68/104/51 200/134/51 197/132/51
f 197/132/52 200/134/52 201/135/52 198/133/52
f 198/133/53 201/135/53 202/97/53 199/126/53
f 68/104/54 25/103/54 179/136/54 200/134/54
f 200/134/55 179/136/55 180/137/55 201/135/55
f 201/135/56 180/137/56 181/98/56 202/97/56
f 82/30/57 205/138/57 76/139/57 12/31/57
f 205/138/58 208/140/58 75/141/58 76/139/58
f 208/140/59 211/93/59 74/96/59 75/141/59
f 11/35/60 73/125/60 203/142/60 80/143/60
f 80/143/61 203/142/61 204/144/61 81/145/61
f 81/145/62 204/144/62 205/138/62 82/30/62
f 73/125/63 72/127/63 206/146/63 203/142/63
f 203/142/64 206/146/64 207/147/64 204/144/64
f 204/144/65 207/147/65 208/140/65 205/138/65
f 72/127/66 71/100/66 209/148/66 206/146/66
f 206/146/67 209/148/67 210/149/67 207/147/67
f 207/147/68 210/149/68 211/93/68 208/140/68
f 71/100/69 26/99/69 176/150/69 209/148/69
f 209/148/70 176/150/70 177/151/70 210/149/70
f 210/149/71 177/151/71 178/94/71 211/93/71
f 79/26/72 214/152/72 170/153/72 9/27/72
f 214/152/73 217/154/73 171/155/73 170/153/73
f 217/154/74 220/89/74 172/92/74 171/155/74
f 12/31/75 76/139/75 212/156/75 77/157/75
f 77/157/76 212/156/76 213/158/76 78/159/76
f 78/159/77 213/158/77 214/152/77 79/26/77
f 76/139/78 75/141/78 215/160/78 212/156/78
f 212/156/79 215/160/79 216/161/79 213/158/79
f 213/158/80 216/161/80 217/154/80 214/152/80
f 75/141/81 74/96/81 218/162/81 215/160/81
f 215/160/82 218/162/82 219/163/82 216/161/82
f 216/161/83 219/163/83 220/89/83 217/154/83
f 74/96/84 27/95/84 173/164/84 218/162/84
f 218/162/85 173/164/85 174/165/85 219/163/85
f 219/163/86 174/165/86 175/90/86 220/89/86
f 175/90/87 223/166/87 146/167/87 28/91/87
f 223/166/88 226/168/88 147/169/88 146/167/88
f 226/168/89 229/85/89 148/88/89 147/169/89
f 27/95/90 169/170/90 221/171/90 173/164/90
f 173/164/91 221/171/91 222/172/91 174/165/91
f 174/165/92 222/172/92 223/166/92 175/90/92
f 169/170/93 168/173/93 224/174/93 221/171/93
f 221/171/94 224/174/94 225/175/94 222/172/94
f 222/172/95 225/175/95 226/168/95 223/166/95
f 168/173/96 167/84/96 227/176/96 224/174/96
f 224/174/97 227/176/97 228/177/97 225/175/97
f 225/175/98 228/177/98 229/85/98 226/168/98
f 167/84/99 23/83/99 158/178/99 227/176/99
f 227/176/100 158/178/100 159/179/100 228/177/100
f 228/177/101 159/179/101 160/86/101 229/85/101
f 178/94/102 232/180/102 169/170/102 27/95/102
f 232/180/103 235/181/103 168/173/103 169/170/103
f 235/181/104 238/81/104 167/84/104 168/173/104
f 26/99/105 166/182/105 230/183/105 176/150/105
f 176/150/106 230/183/106 231/184/106 177/151/106
f 177/151/107 231/184/107 232/180/107 178/94/107
f 166/182/108 165/185/108 233/186/108 230/183/108
f 230/183/109 233/186/109 234/187/109 231/184/109
f 231/184/110 234/187/110 235/181/110 232/180/110
f 165/185/111 164/80/111 236/188/111 233/186/111
f 233/186/112 236/188/112 237/189/112 234/187/112
f 234/187/113 237/189/113 238/81/113 235/181/113
f 164/80/114 22/79/114 155/190/114 236/188/114
f 236/188/115 155/190/115 156/191/115 237/189/115
f 237/189/116 156/191/116 157/82/116 238/81/116
f 181/98/117 241/192/117 166/182/117 26/99/117
f 241/192/118 244/193/118 165/185/118 166/182/118
f 244/193/119 247/77/119 164/80/119 165/185/119
f 25/103/120 163/194/120 239/195/120 179/136/120
f 179/136/121 239/195/121 240/196/121 180/137/121
f 180/137/122 240/196/122 241/192/122 181/98/122
f 163/194/123 162/197/123 242/198/123 239/195/123
f 239/195/124 242/198/124 243/199/124 240/196/124
f 240/196/125 243/199/125 244/193/125 241/192/125
f 162/197/126 161/76/126 245/200/126 242/198/126
f 242/198/127 245/200/127 246/201/127 243/199/127
f 243/199/128 246/201/128 247/77/128 244/193/128
f 161/76/129 21/75/129 152/202/129 245/200/129
f 245/200/130 152/202/130 153/203/130 246/201/130
f 246/201/131 153/203/131 154/78/131 247/77/131
f 184/102/132 250/204/132 163/194/132 25/103/132
f 250/204/133 253/205/133 162/197/133 163/194/133
f 253/205/134 256/73/134 161/76/134 162/197/134
f 28/121/135 146/206/135 248/207/135 182/122/135
f 182/122/136 248/207/136 249/208/136 183/123/136
f 183/123/137 249/208/137 250/204/137 184/102/137
f 146/206/138 147/209/138 251/210/138 248/207/138
f 248/207/139 251/210/139 252/211/139 249/208/139
f 249/208/140 252/211/140 253/205/140 250/204/140
f 147/209/141 148/212/141 254/213/141 251/210/141
f 251/210/142 254/213/142 255/214/142 252/211/142
f 252/211/143 255/214/143 256/73/143 253/205/143
f 148/212/144 24/215/144 149/216/144 254/213/144
f 254/213/145 149/216/145 150/217/145 255/214/145
f 255/214/146 150/217/146 151/74/146 256/73/146
f 59/218/147 259/219/147 122/220/147 1/221/147
f 259/219/148 262/222/148 123/223/148 122/220/148
f 262/222/149 265/69/149 124/72/149 123/223/149
f 5/19/150 58/224/150 257/225/150 61/226/150
f 61/226/151 257/225/151 258/227/151 60/228/151
f 60/228/152 258/227/152 259/219/152 59/218/152
f 58/224/153 57/229/153 260/230/153 257/225/153
f 257/225/154 260/230/154 261/231/154 258/227/154
f 258/227/155 261/231/155 262/222/155 259/219/155
f 57/229/156 56/68/156 263/232/156 260/230/156
f 260/230/157 263/232/157 264/233/157 261/231/157
f 261/231/158 264/233/158 265/69/158 262/222/158
f 56/68/159 19/67/159 134/234/159 263/232/159
f 263/232/160 134/234/160 135/235/160 264/233/160
f 264/233/161 135/235/161 136/70/161 265/69/161
f 50/18/162 268/236/162 58/224/162 5/19/162
f 268/236/163 271/237/163 57/229/163 58/224/163
f 271/237/164 274/65/164 56/68/164 57/229/164
f 7/238/165 49/239/165 266/240/165 52/241/165
f 52/241/166 266/240/166 267/242/166 51/243/166
f 51/243/167 267/242/167 268/236/167 50/18/167
f 49/239/168 48/244/168 269/245/168 266/240/168
f 266/240/169 269/245/169 270/246/169 267/242/169
f 267/242/170 270/246/170 271/237/170 268/236/170
f 48/244/171 47/64/171 272/247/171 269/245/171
f 269/245/172 272/247/172 273/248/172 270/246/172
f 270/246/173 273/248/173 274/65/173 271/237/173
f 47/64/174 18/63/174 131/249/174 272/247/174
f 272/247/175 131/249/175 132/250/175 273/248/175
f 273/248/176 132/250/176 133/66/176 274/65/176
f 41/251/177 277/252/177 49/239/177 7/238/177
f 277/252/178 280/253/178 48/244/178 49/239/178
f 280/253/179 283/61/179 47/64/179 48/244/179
f 3/254/180 40/255/180 275/256/180 43/257/180
f 43/257/181 275/256/181 276/258/181 42/259/181
f 42/259/182 276/258/182 277/252/182 41/251/182
f 40/255/183 39/260/183 278/261/183 275/256/183
f 275/256/184 278/261/184 279/262/184 276/258/184
f 276/258/185 279/262/185 280/253/185 277/252/185
f 39/260/186 38/60/186 281/263/186 278/261/186
f 278/261/187 281/263/187 282/264/187 279/262/187
f 279/262/188 282/264/188 283/61/188 280/253/188
f 38/60/189 17/59/189 128/265/189 281/263/189
f 281/263/190 128/265/190 129/266/190 282/264/190
f 282/264/191 129/266/191 130/62/191 283/61/191
f 29/267/192 286/268/192 40/255/192 3/254/192
f 286/268/193 289/269/193 39/260/193 40/255/193
f 289/269/194 292/57/194 38/60/194 39/260/194
f 1/270/195 122/271/195 284/272/195 31/273/195
f 31/273/196 284/272/196 285/274/196 30/275/196
f 30/275/197 285/274/197 286/268/197 29/267/197
f 122/271/198 123/276/198 287/277/198 284/272/198
f 284/272/199 287/277/199 288/278/199 285/274/199
f 285/274/200 288/278/200 289/269/200 286/268/200
f 123/276/201 124/279/201 290/280/201 287/277/201
f 287/277/202 290/280/202 291/281/202 288/278/202
f 288/278/203 291/281/203 292/57/203 289/269/203
f 124/279/204 20/282/204 125/283/204 290/280/204
f 290/280/205 125/283/205 126/284/205 291/281/205
f 291/281/206 126/284/206 127/58/206 292/57/206
f 151/74/207 295/285/207 139/286/207 21/75/207
f 295/285/208 298/287/208 138/288/208 139/286/208
f 298/287/209 301/53/209 137/56/209 138/288/209
f 24/215/210 89/289/210 293/290/210 149/216/210
f 149/216/211 293/290/211 294/291/211 150/217/211
f 150/217/212 294/291/212 295/285/212 151/74/212
f 89/289/213 90/292/213 296/293/213 293/290/213
f 293/290/214 296/293/214 297/294/214 294/291/214
f 294/291/215 297/294/215 298/287/215 295/285/215
f 90/292/216 91/295/216 299/296/216 296/293/216
f 296/293/217 299/296/217 300/297/217 297/294/217
f 297/294/218 300/297/218 301/53/218 298/287/218
f 91/295/219 13/298/219 110/299/219 299/296/219
f 299/296/220 110/299/220 111/300/220 300/297/220
f 300/297/221 111/300/221 112/54/221 301/53/221
f 154/78/222 304/301/222 142/302/222 22/79/222
f 304/301/223 307/303/223 141/304/223 142/302/223
f 307/303/224 310/49/224 140/52/224 141/304/224
f 21/75/225 139/286/225 302/305/225 152/202/225
f 152/202/226 302/305/226 303/306/226 153/203/226
f 153/203/227 303/306/227 304/301/227 154/78/227
f 139/286/228 138/288/228 305/307/228 302/305/228
f 302/305/229 305/307/229 306/308/229 303/306/229
f 303/306/230 306/308/230 307/303/230 304/301/230
f 138/288/231 137/56/231 308/309/231 305/307/231
f 305/307/232 308/309/232 309/310/232 306/308/232
f 306/308/233 309/310/233 310/49/233 307/303/233
f 137/56/234 14/55/234 107/311/234 308/309/234
f 308/309/235 107/311/235 108/312/235 309/310/235
f 309/310/236 108/312/236 109/50/236 310/49/236
f 157/82/237 313/313/237 145/314/237 23/83/237
f 313/313/238 316/315/238 144/316/238 145/314/238
f 316/315/239 319/45/239 143/48/239 144/316/239
f 22/79/240 142/302/240 311/317/240 155/190/240
f 155/190/241 311/317/241 312/318/241 156/191/241
f 156/191/242 312/318/242 313/313/242 157/82/242
f 142/302/243 141/304/243 314/319/243 311/317/243
f 311/317/244 314/319/244 315/320/244 312/318/244
f 312/318/245 315/320/245 316/315/245 313/313/245
f 141/304/246 140/52/246 317/321/246 314/319/246
f 314/319/247 317/321/247 318/322/247 315/320/247
f 315/320/248 318/322/248 319/45/248 316/315/248
f 140/52/249 15/51/249 104/323/249 317/321/249
f 317/321/250 104/323/250 105/324/250 318/322/250
f 318/322/251 105/324/251 106/46/251 319/45/251
f 160/86/252 322/325/252 89/326/252 24/87/252
f 322/325/253 325/327/253 90/328/253 89/326/253
f 325/327/254 328/41/254 91/44/254 90/328/254
f 23/83/255 145/314/255 320/329/255 158/178/255
f 158/178/256 320/329/256 321/330/256 159/179/256
f 159/179/257 321/330/257 322/325/257 160/86/257
f 145/314/258 144/316/258 323/331/258 320/329/258
f 320/329/259 323/331/259 324/332/259 321/330/259
f 321/330/260 324/332/260 325/327/260 322/325/260
f 144/316/261 143/48/261 326/333/261 323/331/261
f 323/331/262 326/333/262 327/334/262 324/332/262
f 324/332/263 327/334/263 328/41/263 325/327/263
f 143/48/264 16/47/264 101/335/264 326/333/264
f 326/333/265 101/335/265 102/336/265 327/334/265
f 327/334/266 102/336/266 103/42/266 328/41/266
f 127/58/267 331/337/267 115/338/267 17/59/267
f 331/337/268 334/339/268 114/340/268 115/338/268
f 334/339/269 337/37/269 113/40/269 114/340/269
f 20/282/270 65/341/270 329/342/270 125/283/270
f 125/283/271 329/342/271 330/343/271 126/284/271
f 126/284/272 330/343/272 331/337/272 127/58/272
f 65/341/273 66/344/273 332/345/273 329/342/273
f 329/342/274 332/345/274 333/346/274 330/343/274
f 330/343/275 333/346/275 334/339/275 331/337/275
f 66/344/276 67/347/276 335/348/276 332/345/276
f 332/345/277 335/348/277 336/349/277 333/346/277
f 333/346/278 336/349/278 337/37/278 334/339/278
f 67/347/279 9/109/279 86/112/279 335/348/279
f 335/348/280 86/112/280 87/114/280 336/349/280
f 336/349/281 87/114/281 88/38/281 337/37/281
f 130/62/282 340/350/282 118/351/282 18/63/282
f 340/350/283 343/352/283 117/353/283 118/351/283
f 343/352/284 346/33/284 116/36/284 117/353/284
f 17/59/285 115/338/285 338/354/285 128/265/285
f 128/265/286 338/354/286 339/355/286 129/266/286
f 129/266/287 339/355/287 340/350/287 130/62/287
f 115/338/288 114/340/288 341/356/288 338/354/288
f 338/354/289 341/356/289 342/357/289 339/355/289
f 339/355/290 342/357/290 343/352/290 340/350/290
f 114/340/291 113/40/291 344/358/291 341/356/291
f 341/356/292 344/358/292 345/359/292 342/357/292
f 342/357/293 345/359/293 346/33/293 343/352/293
f 113/40/294 10/39/294 83/129/294 344/358/294
f 344/358/295 83/129/295 84/131/295 345/359/295
f 345/359/296 84/131/296 85/34/296 346/33/296
f 133/66/297 349/360/297 121/361/297 19/67/297
f 349/360/298 352/362/298 120/363/298 121/361/298
f 352/362/299 355/29/299 119/32/299 120/363/299
f 18/63/300 118/351/300 347/364/300 131/249/300
f 131/249/301 347/364/301 348/365/301 132/250/301
f 132/250/302 348/365/302 349/360/302 133/66/302
f 118/351/303 117/353/303 350/366/303 347/364/303
f 347/364/304 350/366/304 351/367/304 348/365/304
f 348/365/305 351/367/305 352/362/305 349/360/305
f 117/353/306 116/36/306 353/368/306 350/366/306
f 350/366/307 353/368/307 354/369/307 351/367/307
f 351/367/308 354/369/308 355/29/308 352/362/308
f 116/36/309 11/35/309 80/143/309 353/368/309
f 353/368/310 80/143/310 81/145/310 354/369/310
f 354/369/311 81/145/311 82/30/311 355/29/311
f 136/70/312 358/370/312 65/371/312 20/71/312
f 358/370/313 361/372/313 66/373/313 65/371/313
f 361/372/314 364/25/314 67/28/314 66/373/314
f 19/67/315 121/361/315 356/374/315 134/234/315
f 134/234/316 356/374/316 357/375/316 135/235/316
f 135/235/317 357/375/317 358/370/317 136/70/317
f 121/361/318 120/363/318 359/376/318 356/374/318
f 356/374/319 359/376/319 360/377/319 357/375/319
f 357/375/320 360/377/320 361/372/320 358/370/320
f 120/363/321 119/32/321 362/378/321 359/376/321
f 359/376/322 362/378/322 363/379/322 360/377/322
f 360/377/323 363/379/323 364/25/323 361/372/323
f 119/32/324 12/31/324 77/157/324 362/378/324
f 362/378/325 77/157/325 78/159/325 363/379/325
f 363/379/326 78/159/326 79/26/326 364/25/326
f 55/10/327 367/380/327 62/381/327 6/11/327
f 367/380/328 370/382/328 63/383/328 62/381/328
f 370/382/329 373/21/329 64/24/329 63/383/329
f 8/7/330 46/384/330 365/385/330 53/386/330
f 53/386/331 365/385/331 366/387/331 54/388/331
f 54/388/332 366/387/332 367/380/332 55/10/332
f 46/384/333 45/389/333 368/390/333 365/385/333
f 365/385/334 368/390/334 369/391/334 366/387/334
f 366/387/335 369/391/335 370/382/335 367/380/335
f 45/389/336 44/392/336 371/393/336 368/390/336
f 368/390/337 371/393/337 372/394/337 369/391/337
f 369/391/338 372/394/338 373/21/338 370/382/338
f 44/392/339 4/395/339 37/396/339 371/393/339
f 371/393/340 37/396/340 36/397/340 372/394/340
f 372/394/341 36/397/341 35/22/341 373/21/341
f 31/398/342 376/399/342 59/400/342 1/401/342
f 376/399/343 379/402/343 60/403/343 59/400/343
f 379/402/344 382/17/344 61/20/344 60/403/344
f 3/404/345 43/405/345 374/406/345 29/407/345
f 29/407/346 374/406/346 375/408/346 30/409/346
f 30/409/347 375/408/347 376/399/347 31/398/347
f 43/405/348 42/410/348 377/411/348 374/406/348
f 374/406/349 377/411/349 378/412/349 375/408/349
f 375/408/350 378/412/350 379/402/350 376/399/350
f 42/410/351 41/413/351 380/414/351 377/411/351
f 377/411/352 380/414/352 381/415/352 378/412/352
f 378/412/353 381/415/353 382/17/353 379/402/353
f 41/413/354 7/238/354 52/241/354 380/414/354
f 380/414/355 52/241/355 51/243/355 381/415/355
f 381/415/356 51/243/356 50/18/356 382/17/356
f 103/42/357 385/416/357 32/417/357 13/43/357
f 385/416/358 388/418/358 33/419/358 32/417/358
f 388/418/359 391/13/359 34/16/359 33/419/359
f 16/47/360 100/420/360 383/421/360 101/335/360
f 101/335/361 383/421/361 384/422/361 102/336/361
f 102/336/362 384/422/362 385/416/362 103/42/362
f 100/420/363 99/423/363 386/424/363 383/421/363
f 383/421/364 386/424/364 387/425/364 384/422/364
f 384/422/365 387/425/365 388/418/365 385/416/365
f 99/423/366 98/12/366 389/426/366 386/424/366
f 386/424/367 389/426/367 390/427/367 387/425/367
f 387/425/368 390/427/368 391/13/368 388/418/368
f 98/12/369 6/11/369 62/428/369 389/426/369
f 389/426/370 62/428/370 63/429/370 390/427/370
f 390/427/371 63/429/371 64/14/371 391/13/371
f 106/46/372 394/430/372 100/420/372 16/47/372
f 394/430/373 397/431/373 99/423/373 100/420/373
f 397/431/374 400/9/374 98/12/374 99/423/374
f 15/51/375 97/432/375 392/433/375 104/323/375
f 104/323/376 392/433/376 393/434/376 105/324/376
f 105/324/377 393/434/377 394/430/377 106/46/377
f 97/432/378 96/435/378 395/436/378 392/433/378
f 392/433/379 395/436/379 396/437/379 393/434/379
f 393/434/380 396/437/380 397/431/380 394/430/380
f 96/435/381 95/8/381 398/438/381 395/436/381
f 395/436/382 398/438/382 399/439/382 396/437/382
f 396/437/383 399/439/383 400/9/383 397/431/383
f 95/8/384 8/7/384 53/386/384 398/438/384
f 398/438/385 53/386/385 54/388/385 399/439/385
f 399/439/386 54/388/386 55/10/386 400/9/386
f 109/50/387 403/440/387 97/432/387 15/51/387
f 403/440/388 406/441/388 96/435/388 97/432/388
f 406/441/389 409/5/389 95/8/389 96/435/389
f 14/55/390 94/442/390 401/443/390 107/311/390
f 107/311/391 401/443/391 402/444/391 108/312/391
f 108/312/392 402/444/392 403/440/392 109/50/392
f 94/442/393 93/445/393 404/446/393 401/443/393
f 401/443/394 404/446/394 405/447/394 402/444/394
f 402/444/395 405/447/395 406/441/395 403/440/395
f 93/445/396 92/4/396 407/448/396 404/446/396
f 404/446/397 407/448/397 408/449/397 405/447/397
f 405/447/398 408/449/398 409/5/398 406/441/398
f 92/4/399 4/3/399 44/450/399 407/448/399
f 407/448/400 44/450/400 45/451/400 408/449/400
f 408/449/401 45/451/401 46/6/401 409/5/401
f 112/54/402 412/452/402 94/442/402 14/55/402
f 412/452/403 415/453/403 93/445/403 94/442/403
f 415/453/404 418/1/404 92/4/404 93/445/404
f 13/298/405 32/454/405 410/455/405 110/299/405
f 110/299/406 410/455/406 411/456/406 111/300/406
f 111/300/407 411/456/407 412/452/407 112/54/407
f 32/454/408 33/457/408 413/458/408 410/455/408
f 410/455/409 413/458/409 414/459/409 411/456/409
f 411/456/410 414/459/410 415/453/410 412/452/410
f 33/457/411 34/460/411 416/461/411 413/458/411
f 413/458/412 416/461/412 417/462/412 414/459/412
f 414/459/413 417/462/413 418/1/413 415/453/413
f 34/460/414 2/463/414 35/464/414 416/461/414
f 416/461/415 35/464/415 36/465/415 417/462/415
f 417/462/416 36/465/416 37/2/416 418/1/416
