# Blender 4.0.2
# www.blender.org
o obj_0
v -16.149078 -3.797259 4.535300
v -16.143663 4.218986 4.535299
v -16.119022 4.222774 -6.491505
v -16.122812 -3.795094 -6.485547
v 20.949217 -3.787780 -6.494031
v 20.925436 -3.795093 4.527446
v 14.928520 4.222775 4.526905
v 14.939443 4.214920 -6.494032
v 15.675530 3.214668 -6.488618
v -15.139318 3.219828 -6.487329
v -15.136402 -2.793950 -6.488617
v 20.198322 -2.788756 -6.493131
v -15.159531 -2.795933 3.533241
v 20.171820 -2.791601 3.532701
v -15.125511 3.223700 3.535948
v 15.675529 3.221329 3.531888
vn -1.0000 0.0007 -0.0022
vn -1.0000 0.0005 -0.0024
vn 0.0001 -1.0000 -0.0007
vn 0.0002 -1.0000 -0.0002
vn -0.0001 1.0000 -0.0007
vn 0.0003 1.0000 0.0003
vn -0.0000 -0.0054 -1.0000
vn -0.0001 0.0008 -1.0000
vn -0.0001 -0.0042 -1.0000
vn 0.0035 -0.0007 -1.0000
vn -0.0033 0.0002 -1.0000
vn -0.0002 -0.0028 -1.0000
vn -0.0001 1.0000 0.0002
vn -0.0001 1.0000 0.0003
vn 0.0003 -0.0000 1.0000
vn 1.0000 -0.0057 0.0023
vn 1.0000 0.0005 -0.0014
vn 0.0002 0.0002 1.0000
vn 0.8008 0.5989 -0.0016
vn 0.8009 0.5989 -0.0026
vn 0.7986 0.6019 0.0021
vn 0.7994 0.6008 0.0023
vn 0.8017 0.5977 0.0004
vn 0.8054 0.5927 -0.0004
vn -0.0001 0.0005 -1.0000
vn -0.0000 -0.0001 -1.0000
vn -0.0001 -1.0000 0.0004
vn -0.0002 -1.0000 0.0007
s 0
f 1//1 2//1 3//1
f 1//2 3//2 4//2
f 5//3 6//3 1//3
f 5//4 1//4 4//4
f 7//5 8//5 2//5
f 2//6 8//6 3//6
f 9//7 10//7 8//7
f 5//8 11//8 12//8
f 8//9 10//9 3//9
f 4//10 3//10 10//10
f 4//11 10//11 11//11
f 4//12 11//12 5//12
f 12//13 11//13 13//13
f 12//14 13//14 14//14
f 1//15 7//15 2//15
f 15//16 13//16 11//16
f 15//17 11//17 10//17
f 6//18 7//18 1//18
f 7//19 6//19 16//19
f 14//20 16//20 6//20
f 6//21 5//21 14//21
f 12//22 14//22 5//22
f 8//23 7//23 16//23
f 8//24 16//24 9//24
f 15//25 16//25 13//25
f 14//26 13//26 16//26
f 16//27 15//27 10//27
f 16//28 10//28 9//28
