# Blender 5.1.0
# www.blender.org
o GithubLogo
v -0.077901 0.000000 0.231966
v -0.105173 0.000000 0.234867
v -0.139679 0.000000 0.232767
v -0.165585 0.000000 0.218059
v -0.179246 0.000000 0.201366
v -0.193635 0.000000 0.172071
v -0.208046 0.000000 0.154638
v -0.227873 0.000000 0.139725
v -0.229130 0.000000 0.134135
v -0.215098 0.000000 0.130987
v -0.199582 0.000000 0.135078
v -0.179220 0.000000 0.149511
v -0.159107 0.000000 0.176320
v -0.149058 0.000000 0.185964
v -0.133694 0.000000 0.193244
v -0.113455 0.000000 0.197549
v -0.090716 0.000000 0.194584
v -0.076393 0.000000 0.189057
v -0.074469 0.000000 0.177851
v -0.066744 0.000000 0.157128
v -0.056767 0.000000 0.145686
v -0.080359 0.000000 0.142119
v -0.111553 0.000000 0.134876
v -0.139880 0.000000 0.121263
v -0.157294 0.000000 0.107099
v -0.175153 0.000000 0.085842
v -0.192863 0.000000 0.047509
v -0.199409 0.000000 -0.001292
v -0.196367 0.000000 -0.033130
v -0.190024 0.000000 -0.054946
v -0.179105 0.000000 -0.076268
v -0.166549 0.000000 -0.092370
v -0.172567 0.000000 -0.122560
v -0.172219 0.000000 -0.147960
v -0.163520 0.000000 -0.175092
v -0.150496 0.000000 -0.175517
v -0.125321 0.000000 -0.169218
v -0.097140 0.000000 -0.154938
v -0.079165 0.000000 -0.143101
v -0.054450 0.000000 -0.148747
v -0.008452 0.000000 -0.154102
v 0.036800 0.000000 -0.152063
v 0.078512 0.000000 -0.143478
v 0.099607 0.000000 -0.157331
v 0.125478 0.000000 -0.170448
v 0.148317 0.000000 -0.175471
v 0.161303 0.000000 -0.175161
v 0.170237 0.000000 -0.143612
v 0.169816 0.000000 -0.116646
v 0.164770 0.000000 -0.094093
v 0.186294 0.000000 -0.060181
v 0.193928 0.000000 -0.036697
v 0.197404 0.000000 -0.006509
v 0.190668 0.000000 0.046725
v 0.173936 0.000000 0.085650
v 0.151231 0.000000 0.110976
v 0.127253 0.000000 0.126817
v 0.095245 0.000000 0.138197
v 0.054719 0.000000 0.145360
v 0.066659 0.000000 0.160304
v 0.072746 0.000000 0.180065
v 0.076301 0.000000 0.215112
v 0.075640 0.000000 0.295587
v 0.078692 0.000000 0.303467
v 0.089098 0.000000 0.307304
v 0.112647 0.000000 0.302503
v 0.157434 0.000000 0.279390
v 0.197682 0.000000 0.250945
v 0.233953 0.000000 0.216019
v 0.266667 0.000000 0.171534
v 0.294336 0.000000 0.112390
v 0.305136 0.000000 0.072947
v 0.310804 0.000000 0.029286
v 0.308304 0.000000 -0.035650
v 0.298800 0.000000 -0.079449
v 0.285917 0.000000 -0.115327
v 0.268346 0.000000 -0.150509
v 0.246145 0.000000 -0.184263
v 0.218564 0.000000 -0.216741
v 0.186451 0.000000 -0.245542
v 0.149888 0.000000 -0.269163
v 0.112514 0.000000 -0.286106
v 0.075669 0.000000 -0.297293
v 0.025814 0.000000 -0.305590
v -0.031852 0.000000 -0.305066
v -0.078843 0.000000 -0.298046
v -0.119681 0.000000 -0.284160
v -0.159159 0.000000 -0.263645
v -0.218111 0.000000 -0.221115
v -0.255913 0.000000 -0.178025
v -0.286780 0.000000 -0.122314
v -0.305576 0.000000 -0.066719
v -0.312247 0.000000 -0.028195
v -0.314335 0.000000 0.007995
v -0.309846 0.000000 0.058902
v -0.297887 0.000000 0.107340
v -0.279495 0.000000 0.151894
v -0.251765 0.000000 0.196903
v -0.215915 0.000000 0.235657
v -0.186698 0.000000 0.260518
v -0.156176 0.000000 0.281624
v -0.107552 0.000000 0.304223
v -0.094397 0.000000 0.307283
v -0.085144 0.000000 0.305289
v -0.078003 0.000000 0.295790
v -0.208134 0.125000 0.154671
v -0.249362 0.125000 0.199875
v -0.226917 0.125000 0.140667
v -0.229336 0.125000 0.134493
v -0.277606 0.125000 0.155574
v -0.296513 0.125000 0.111436
v -0.216068 0.125000 0.130778
v -0.179452 0.125000 0.200907
v -0.213341 0.125000 0.238077
v -0.193572 0.125000 0.171975
v -0.198552 0.125000 0.135593
v -0.192352 0.125000 0.048537
v -0.309080 0.125000 0.063288
v -0.199108 0.125000 0.006228
v -0.314270 0.125000 0.012548
v -0.312247 0.125000 -0.028195
v -0.196101 0.125000 -0.036633
v -0.306619 0.125000 -0.062358
v -0.184196 0.125000 -0.067597
v -0.173246 0.125000 -0.136688
v -0.288611 0.125000 -0.118025
v -0.162739 0.125000 -0.261381
v -0.117429 0.125000 -0.166181
v -0.147060 0.125000 0.229691
v -0.154539 0.125000 0.282502
v -0.158967 0.125000 0.176558
v -0.141622 0.125000 0.120118
v -0.111661 0.125000 0.197597
v -0.122368 0.125000 -0.282986
v -0.078002 0.125000 0.295763
v -0.084421 0.125000 0.304749
v -0.093713 0.125000 0.307298
v -0.090705 0.125000 0.194509
v -0.113359 0.125000 0.134262
v -0.106180 0.125000 0.304723
v -0.131783 0.125000 0.234040
v -0.132340 0.125000 0.193702
v -0.148195 0.125000 0.186553
v -0.166990 0.125000 0.216821
v -0.184912 0.125000 0.261887
v -0.158461 0.125000 0.105944
v -0.179233 0.125000 0.149611
v -0.176634 0.125000 0.083534
v -0.166628 0.125000 -0.092771
v -0.171037 0.125000 -0.112735
v -0.170142 0.125000 -0.156473
v -0.258390 0.125000 -0.174421
v -0.163395 0.125000 -0.175142
v -0.220663 0.125000 -0.218815
v -0.148691 0.125000 -0.175319
v -0.057467 0.125000 0.145795
v -0.081676 0.125000 0.141901
v -0.035533 0.125000 -0.304752
v 0.025407 0.125000 -0.153676
v -0.083182 0.125000 -0.296958
v -0.020333 0.125000 -0.153152
v 0.021229 0.125000 -0.305920
v 0.067352 0.125000 0.161761
v 0.055418 0.125000 0.145666
v 0.072501 0.125000 -0.298035
v 0.079459 0.125000 0.304201
v 0.090220 0.125000 0.307344
v 0.115322 0.125000 0.301456
v 0.093057 0.125000 0.138708
v 0.076234 0.125000 0.215800
v 0.073106 0.125000 0.181957
v 0.100109 0.125000 -0.157678
v 0.078568 0.125000 -0.143525
v 0.127552 0.125000 -0.171204
v 0.109228 0.125000 -0.287313
v 0.149763 0.125000 -0.175571
v 0.146602 0.125000 -0.270919
v 0.181195 0.125000 -0.070591
v 0.164473 0.125000 -0.093534
v 0.161138 0.125000 -0.175182
v 0.186167 0.125000 0.059767
v 0.306167 0.125000 0.069629
v 0.310966 0.125000 0.016154
v 0.195065 0.125000 0.024469
v 0.307744 0.125000 -0.039737
v 0.196667 0.125000 -0.019487
v 0.297856 0.125000 -0.082619
v 0.191910 0.125000 -0.044588
v 0.284556 0.125000 -0.118466
v 0.126008 0.125000 0.127431
v 0.236316 0.125000 0.213315
v 0.265585 0.125000 0.172993
v 0.149525 0.125000 0.112360
v 0.290960 0.125000 0.121169
v 0.172450 0.125000 0.087880
v 0.266573 0.125000 -0.153552
v 0.169502 0.125000 -0.114622
v 0.243965 0.125000 -0.187147
v 0.170685 0.125000 -0.136949
v 0.216013 0.125000 -0.219344
v 0.167486 0.125000 -0.155857
v 0.183281 0.125000 -0.247931
v 0.075624 0.125000 0.295543
v 0.160594 0.125000 0.277426
v 0.200399 0.125000 0.248685
v -0.104829 0.125000 0.234708
v -0.077905 0.125000 0.232009
v -0.076395 0.125000 0.189068
v -0.074152 0.125000 0.176575
v -0.068121 0.125000 0.160147
v -0.052581 0.125000 -0.149099
v -0.079000 0.125000 -0.143153
vn -0.0000 -1.0000 -0.0000
vn -0.0000 1.0000 -0.0000
vn -0.9759 0.0011 -0.2183
vn -0.1477 -0.0019 -0.9890
vn -0.7999 -0.0002 0.6001
vn -0.9187 0.0081 -0.3949
vn -0.0238 0.0011 0.9997
vn 0.6310 0.0017 -0.7758
vn 0.7707 -0.0009 -0.6372
vn -0.0450 0.0088 0.9989
vn -0.2550 -0.0004 0.9669
vn 0.5426 -0.0023 -0.8400
vn -0.1058 0.0003 -0.9944
vn 1.0000 -0.0000 0.0016
vn 0.9645 -0.0009 0.2641
vn -0.8443 0.0102 0.5358
vn 0.3600 -0.0001 0.9330
vn 0.9856 -0.0000 0.1692
vn 0.8946 -0.0015 -0.4468
vn -0.5783 0.0014 0.8158
vn -0.7812 0.0028 0.6242
vn 0.9917 -0.0048 0.1287
vn 0.7657 0.0012 -0.6432
vn -0.9999 0.0044 -0.0156
vn 0.9078 0.0030 -0.4194
vn -0.1740 0.0010 -0.9847
vn 0.7993 -0.0020 0.6009
vn 0.8355 -0.0015 -0.5495
vn 0.2189 0.0033 0.9757
vn -0.9920 0.0125 -0.1255
vn 0.7886 0.0025 0.6149
vn 0.2107 -0.0013 0.9776
vn 0.1642 -0.0017 -0.9864
vn -0.9708 -0.0025 0.2397
vn 0.9807 0.0034 -0.1955
vn 0.2262 0.0007 -0.9741
vn 0.2905 -0.0016 -0.9569
vn 0.9370 0.0012 0.3493
vn 0.9992 -0.0053 -0.0385
vn -0.9325 -0.0000 0.3612
vn -0.2265 -0.0014 0.9740
vn -0.9621 0.0055 0.2725
vn 0.7622 -0.0016 -0.6473
vn -0.3459 -0.0034 0.9383
vn 0.1293 -0.0022 0.9916
vn -0.9961 -0.0027 0.0879
vn 0.9911 0.0056 -0.1329
vn -0.9934 0.0060 0.1144
vn -0.5500 0.0011 0.8352
vn 0.2227 0.0001 0.9749
vn 0.1998 -0.0021 0.9798
vn 0.6677 -0.0019 -0.7445
vn -0.4520 0.0069 0.8920
vn 0.9773 -0.0026 -0.2120
vn -0.3219 -0.0029 -0.9468
vn -0.7517 -0.0032 -0.6595
vn -0.4215 -0.0009 0.9068
vn -0.9949 0.0013 0.1009
vn 0.9522 0.0050 0.3053
vn -0.9510 0.0042 0.3092
vn -0.9983 -0.0000 -0.0576
vn -1.0000 -0.0001 -0.0082
vn 0.9955 0.0005 0.0951
vn 0.9412 -0.0015 -0.3379
vn 0.0608 0.0063 -0.9981
vn 0.4586 -0.0024 0.8886
vn -0.9853 -0.0023 -0.1706
vn 0.6011 0.0014 -0.7992
vn -0.5851 -0.0021 -0.8110
vn -0.2080 -0.0013 0.9781
vn 0.0326 0.0004 0.9995
vn 0.9602 0.0058 0.2792
vn -0.9557 0.0019 0.2944
vn -0.9473 -0.0029 -0.3203
vn -0.8514 -0.0026 0.5245
vn -0.4282 -0.0013 0.9037
vn 0.6936 -0.0021 0.7203
vn -0.2016 0.0005 0.9795
vn 0.5772 -0.0018 0.8166
vn 0.8901 0.0046 0.4558
vn -0.5512 0.0017 -0.8344
vn 0.5489 0.0001 0.8359
vn 0.9756 0.0022 -0.2194
vn -0.8747 -0.0034 -0.4846
vn -0.6924 -0.0006 0.7215
vn -0.3350 0.0013 -0.9422
vn -0.9243 -0.0023 0.3816
vn 0.4522 0.0007 0.8919
vn 0.9999 0.0070 0.0137
vn 0.7537 0.0036 0.6572
vn 0.1495 0.0017 -0.9888
vn 0.8056 -0.0024 0.5924
vn 0.4331 0.0018 -0.9013
vn 0.7739 0.0024 -0.6333
vn -0.5688 -0.0009 0.8225
vn -0.7446 0.0031 -0.6675
vn 0.4937 0.0078 -0.8696
vn -0.2427 0.0020 0.9701
vn 0.2148 0.0023 0.9767
vn -0.4611 -0.0016 -0.8873
vn -0.0091 -0.0030 -1.0000
vn -0.6480 -0.0014 0.7616
vn 0.9058 -0.0053 0.4237
vn -0.7341 -0.0020 0.6791
vn 0.4129 -0.0019 -0.9108
vn 0.1156 0.0011 0.9933
vn 0.8976 -0.0008 -0.4409
vn -0.9727 -0.0013 -0.2320
vn -0.8081 -0.0046 0.5890
vn -0.1614 0.0030 -0.9869
vn -0.8987 -0.0029 -0.4385
vn -0.7992 -0.0006 0.6011
vn 0.9591 0.0060 0.2830
vn 0.8029 -0.0056 0.5960
vn -0.0341 0.0001 0.9994
vn 0.6440 -0.0011 -0.7650
vn -0.0998 -0.0010 -0.9950
vn 0.7651 0.0007 -0.6439
vn -0.2650 -0.0018 0.9642
vn 0.5311 0.0021 -0.8473
vn 1.0000 -0.0000 0.0015
vn 0.9843 -0.0007 0.1767
vn 0.8899 0.0015 -0.4561
vn -0.9696 -0.0094 -0.2444
vn -0.5873 -0.0007 0.8094
vn -0.8033 -0.0025 0.5956
vn 0.3554 0.0005 0.9347
vn 0.7767 -0.0024 -0.6299
vn -0.9986 -0.0016 -0.0529
vn 0.9122 -0.0004 -0.4097
vn 0.9960 0.0081 0.0894
vn -0.1818 0.0034 -0.9833
vn 0.8137 0.0001 0.5813
vn 0.8296 0.0016 -0.5583
vn 0.9765 -0.0001 -0.2156
vn 0.2646 0.0026 0.9644
vn 0.1520 0.0030 -0.9884
vn -0.9860 -0.0054 0.1668
vn -0.9676 0.0024 0.2526
vn 0.2344 -0.0014 -0.9721
vn -0.9993 -0.0097 -0.0364
vn 0.2802 0.0014 -0.9599
vn 0.8200 -0.0063 0.5723
vn 0.9388 0.0020 0.3446
vn 0.9983 0.0026 -0.0576
vn -0.9144 0.0032 0.4049
vn -0.2023 0.0010 0.9793
vn 0.7551 0.0018 -0.6556
vn 0.9875 -0.0027 -0.1577
vn -0.2803 0.0022 0.9599
vn 0.1458 0.0006 0.9893
vn 0.9958 -0.0050 -0.0918
vn -0.9948 0.0025 0.1018
vn 0.9879 -0.0059 0.1550
vn -0.9501 -0.0012 0.3121
vn 0.2196 -0.0005 0.9756
vn 0.2284 0.0033 0.9736
vn 0.6578 0.0023 -0.7532
vn -0.9825 -0.0041 0.1862
vn 0.9744 0.0017 -0.2247
vn -0.3358 0.0016 -0.9419
vn -0.7620 0.0036 -0.6476
vn -0.4175 0.0009 0.9087
vn -0.9958 -0.0010 0.0920
vn 0.9405 -0.0008 0.3399
vn -0.9988 0.0023 -0.0496
vn -0.5140 -0.0063 0.8578
vn 0.0248 -0.0013 -0.9997
vn 0.9975 -0.0066 0.0700
vn -0.9246 -0.0060 0.3810
vn 0.9376 0.0015 -0.3478
vn -1.0000 -0.0005 -0.0076
vn 0.4688 0.0020 0.8833
vn -0.9867 -0.0000 -0.1626
vn 0.5977 0.0006 -0.8017
vn -0.5922 0.0027 -0.8058
vn -0.1851 0.0023 0.9827
vn 0.0121 -0.0018 0.9999
vn -0.9617 -0.0014 0.2740
vn -0.9515 0.0028 -0.3078
vn 0.9334 -0.0072 0.3589
vn -0.8432 0.0034 0.5376
vn -0.4111 0.0011 0.9116
vn 0.7017 0.0021 0.7125
vn 0.5854 0.0019 0.8107
vn 0.5491 0.0001 0.8358
vn 0.9311 -0.0044 -0.3647
vn -0.5396 -0.0012 -0.8419
vn -0.8814 0.0033 -0.4723
vn -0.6802 0.0012 0.7331
vn -0.3238 -0.0018 -0.9461
vn -0.9192 0.0023 0.3938
vn 0.4421 -0.0019 0.8970
vn -0.1876 -0.0044 0.9822
vn 0.2696 -0.0023 0.9630
vn 0.1588 -0.0001 -0.9873
vn 0.8093 0.0001 0.5874
vn 0.4475 -0.0020 -0.8943
vn 0.7873 -0.0010 -0.6165
vn 0.0115 -0.0065 0.9999
vn -0.5616 0.0015 0.8274
vn -0.7299 -0.0024 -0.6835
vn 0.5425 -0.0022 -0.8401
vn -0.2806 -0.0056 0.9598
vn 0.1929 -0.0014 0.9812
vn -0.4718 0.0025 -0.8817
vn 0.8981 0.0026 0.4398
vn -0.0206 0.0019 -0.9998
vn 0.8987 -0.0001 -0.4386
vn 0.2738 -0.0075 -0.9618
vn -0.6421 0.0008 0.7666
vn -0.7276 0.0017 0.6860
vn 0.4017 0.0017 -0.9158
vn 0.1247 0.0043 0.9922
vt 0.073768 0.000000
vt 0.905520 0.000000
vt 0.090954 0.000000
vt 0.898712 0.000000
vt 0.097083 0.000000
vt 0.893290 0.000000
vt 0.038962 0.000000
vt 0.917510 0.000000
vt 0.048503 0.000000
vt 0.063847 0.000000
vt 0.105876 0.000000
vt 0.275839 0.000000
vt 0.116320 0.000000
vt 0.287534 0.000000
vt 0.887876 0.000000
vt 0.882472 0.000000
vt 0.300573 0.000000
vt 0.878706 0.000000
vt 0.308475 0.000000
vt 0.874721 0.000000
vt 0.313831 0.000000
vt 0.866070 0.000000
vt 0.319178 0.000000
vt 0.855257 0.000000
vt 0.335928 0.000000
vt 0.346016 0.000000
vt 0.360526 0.000000
vt 0.833009 0.000000
vt 0.369664 0.000000
vt 0.825822 0.000000
vt 0.131806 0.000000
vt 0.261290 0.000000
vt 0.150704 0.000000
vt 0.962609 0.000000
vt 0.955627 0.000000
vt 0.970496 0.000000
vt 0.948747 0.000000
vt 0.184194 0.000000
vt 0.173320 0.000000
vt 0.249523 0.000000
vt 0.819121 0.000000
vt 0.380408 0.000000
vt 0.933699 0.000000
vt 0.013290 0.000000
vt 0.027580 0.000000
vt 0.165556 0.000000
vt 0.158851 0.000000
vt 0.925755 0.000000
vt 0.267918 0.000000
vt 0.323428 0.000000
vt 0.844927 0.000000
vt 0.355734 0.000000
vt 0.236182 0.000000
vt 0.226255 0.000000
vt 0.214673 0.000000
vt 0.417416 0.000000
vt 0.812527 0.000000
vt 0.804155 0.000000
vt 0.397897 0.000000
vt 0.437895 0.000000
vt 0.614802 0.000000
vt 0.600211 0.000000
vt 0.620764 0.000000
vt 0.796196 0.000000
vt 0.463261 0.000000
vt 0.790802 0.000000
vt 0.650592 0.000000
vt 0.646876 0.000000
vt 0.655638 0.000000
vt 0.662921 0.000000
vt 0.626123 0.000000
vt 0.633367 0.000000
vt 0.452833 0.000000
vt 0.481016 0.000000
vt 0.473280 0.000000
vt 0.785419 0.000000
vt 0.780044 0.000000
vt 0.485203 0.000000
vt 0.720998 0.000000
vt 0.553918 0.000000
vt 0.728872 0.000000
vt 0.736549 0.000000
vt 0.542355 0.000000
vt 0.746477 0.000000
vt 0.534764 0.000000
vt 0.753113 0.000000
vt 0.528052 0.000000
vt 0.758517 0.000000
vt 0.685651 0.000000
vt 0.585675 0.000000
vt 0.696466 0.000000
vt 0.574665 0.000000
vt 0.708114 0.000000
vt 0.564294 0.000000
vt 0.517454 0.000000
vt 0.509860 0.000000
vt 0.763919 0.000000
vt 0.498790 0.000000
vt 0.769318 0.000000
vt 0.774866 0.000000
vt 0.674670 0.000000
vt 0.000001 0.000000
vt 0.194070 0.000000
vt 0.200576 0.000000
vt 0.388140 0.000000
vt 0.073755 0.000000
vt 0.089567 0.000000
vt 0.906308 0.000000
vt 0.899189 0.000000
vt 0.096851 0.000000
vt 0.893767 0.000000
vt 0.105283 0.000000
vt 0.039689 0.000000
vt 0.048747 0.000000
vt 0.918292 0.000000
vt 0.063834 0.000000
vt 0.117060 0.000000
vt 0.276610 0.000000
vt 0.287228 0.000000
vt 0.888353 0.000000
vt 0.298662 0.000000
vt 0.882949 0.000000
vt 0.309286 0.000000
vt 0.875173 0.000000
vt 0.866835 0.000000
vt 0.316982 0.000000
vt 0.856021 0.000000
vt 0.341656 0.000000
vt 0.361185 0.000000
vt 0.372524 0.000000
vt 0.833683 0.000000
vt 0.826296 0.000000
vt 0.024125 0.000000
vt 0.031121 0.000000
vt 0.934115 0.000000
vt 0.131860 0.000000
vt 0.150864 0.000000
vt 0.261914 0.000000
vt 0.963273 0.000000
vt 0.970510 0.000000
vt 0.956078 0.000000
vt 0.949353 0.000000
vt 0.184178 0.000000
vt 0.250307 0.000000
vt 0.174069 0.000000
vt 0.819794 0.000000
vt 0.013231 0.000000
vt 0.166034 0.000000
vt 0.159476 0.000000
vt 0.926227 0.000000
vt 0.268394 0.000000
vt 0.323483 0.000000
vt 0.331845 0.000000
vt 0.349272 0.000000
vt 0.845561 0.000000
vt 0.355763 0.000000
vt 0.412391 0.000000
vt 0.432617 0.000000
vt 0.804943 0.000000
vt 0.813001 0.000000
vt 0.398667 0.000000
vt 0.236735 0.000000
vt 0.212314 0.000000
vt 0.225792 0.000000
vt 0.615039 0.000000
vt 0.621219 0.000000
vt 0.601052 0.000000
vt 0.796671 0.000000
vt 0.463476 0.000000
vt 0.791278 0.000000
vt 0.651120 0.000000
vt 0.656054 0.000000
vt 0.646869 0.000000
vt 0.663648 0.000000
vt 0.626566 0.000000
vt 0.633511 0.000000
vt 0.452845 0.000000
vt 0.481490 0.000000
vt 0.785895 0.000000
vt 0.474015 0.000000
vt 0.510587 0.000000
vt 0.517520 0.000000
vt 0.524932 0.000000
vt 0.485175 0.000000
vt 0.780521 0.000000
vt 0.549144 0.000000
vt 0.556894 0.000000
vt 0.729471 0.000000
vt 0.738694 0.000000
vt 0.539247 0.000000
vt 0.747104 0.000000
vt 0.532577 0.000000
vt 0.753589 0.000000
vt 0.758994 0.000000
vt 0.686416 0.000000
vt 0.697231 0.000000
vt 0.586370 0.000000
vt 0.575395 0.000000
vt 0.707767 0.000000
vt 0.565045 0.000000
vt 0.719170 0.000000
vt 0.764396 0.000000
vt 0.501738 0.000000
vt 0.769795 0.000000
vt 0.493306 0.000000
vt 0.775334 0.000000
vt 0.675518 0.000000
vt 0.000006 0.000000
vt 0.194065 0.000000
vt 0.201346 0.000000
vt 0.388180 0.000000
s 0
f 7/1/1 98/2/1 8/3/1
f 97/4/1 8/3/1 98/2/1
f 8/3/1 97/4/1 9/5/1
f 96/6/1 9/5/1 97/4/1
f 4/7/1 99/8/1 5/9/1
f 98/2/1 5/9/1 99/8/1
f 5/9/1 98/2/1 6/10/1
f 7/1/1 6/10/1 98/2/1
f 10/11/1 26/12/1 11/13/1
f 26/12/1 10/11/1 27/14/1
f 9/5/1 27/14/1 10/11/1
f 96/6/1 27/14/1 9/5/1
f 95/15/1 27/14/1 96/6/1
f 94/16/1 27/14/1 95/15/1
f 27/14/1 94/16/1 28/17/1
f 93/18/1 28/17/1 94/16/1
f 28/17/1 93/18/1 29/19/1
f 92/20/1 29/19/1 93/18/1
f 29/19/1 92/20/1 30/21/1
f 91/22/1 30/21/1 92/20/1
f 30/21/1 91/22/1 31/23/1
f 90/24/1 33/25/1 91/22/1
f 33/25/1 90/24/1 34/26/1
f 36/27/1 88/28/1 37/29/1
f 37/29/1 88/28/1 87/30/1
f 12/31/1 24/32/1 13/33/1
f 104/34/1 103/35/1 105/36/1
f 103/35/1 102/37/1 105/36/1
f 17/38/1 16/39/1 23/40/1
f 37/29/1 86/41/1 38/42/1
f 87/30/1 86/41/1 37/29/1
f 102/37/1 101/43/1 2/44/1
f 2/44/1 101/43/1 3/45/1
f 16/39/1 15/46/1 23/40/1
f 14/47/1 23/40/1 15/46/1
f 13/33/1 23/40/1 14/47/1
f 24/32/1 23/40/1 13/33/1
f 101/43/1 100/48/1 3/45/1
f 3/45/1 100/48/1 4/7/1
f 99/8/1 4/7/1 100/48/1
f 24/32/1 12/31/1 25/49/1
f 11/13/1 25/49/1 12/31/1
f 25/49/1 11/13/1 26/12/1
f 32/50/1 31/23/1 33/25/1
f 91/22/1 33/25/1 31/23/1
f 89/51/1 34/26/1 90/24/1
f 34/26/1 89/51/1 35/52/1
f 88/28/1 35/52/1 89/51/1
f 35/52/1 88/28/1 36/27/1
f 22/53/1 21/54/1 20/55/1
f 41/56/1 85/57/1 84/58/1
f 40/59/1 86/41/1 41/56/1
f 85/57/1 41/56/1 86/41/1
f 41/56/1 84/58/1 42/60/1
f 59/61/1 58/62/1 60/63/1
f 84/58/1 83/64/1 42/60/1
f 44/65/1 83/64/1 82/66/1
f 64/67/1 63/68/1 65/69/1
f 65/69/1 63/68/1 66/70/1
f 61/71/1 58/62/1 62/72/1
f 60/63/1 58/62/1 61/71/1
f 43/73/1 42/60/1 44/65/1
f 44/65/1 42/60/1 83/64/1
f 46/74/1 45/75/1 81/76/1
f 82/66/1 81/76/1 45/75/1
f 46/74/1 80/77/1 47/78/1
f 81/76/1 80/77/1 46/74/1
f 71/79/1 54/80/1 72/81/1
f 72/81/1 54/80/1 73/82/1
f 53/83/1 73/82/1 54/80/1
f 73/82/1 53/83/1 74/84/1
f 52/85/1 74/84/1 53/83/1
f 74/84/1 52/85/1 75/86/1
f 51/87/1 75/86/1 52/85/1
f 75/86/1 51/87/1 76/88/1
f 68/89/1 57/90/1 69/91/1
f 56/92/1 69/91/1 57/90/1
f 69/91/1 56/92/1 70/93/1
f 55/94/1 70/93/1 56/92/1
f 70/93/1 55/94/1 71/79/1
f 54/80/1 71/79/1 55/94/1
f 50/95/1 76/88/1 51/87/1
f 49/96/1 76/88/1 50/95/1
f 76/88/1 49/96/1 77/97/1
f 48/98/1 77/97/1 49/96/1
f 77/97/1 48/98/1 78/99/1
f 47/78/1 78/99/1 48/98/1
f 78/99/1 47/78/1 79/100/1
f 79/100/1 47/78/1 80/77/1
f 62/72/1 66/70/1 63/68/1
f 66/70/1 62/72/1 67/101/1
f 67/101/1 62/72/1 68/89/1
f 68/89/1 62/72/1 57/90/1
f 58/62/1 57/90/1 62/72/1
f 82/66/1 45/75/1 44/65/1
f 2/44/1 105/36/1 102/37/1
f 1/102/1 105/36/1 2/44/1
f 18/103/1 17/38/1 19/104/1
f 23/40/1 19/104/1 17/38/1
f 22/53/1 19/104/1 23/40/1
f 19/104/1 22/53/1 20/55/1
f 38/42/1 40/59/1 39/105/1
f 86/41/1 40/59/1 38/42/1
f 106/106/2 108/107/2 107/108/2
f 110/109/2 107/108/2 108/107/2
f 108/107/2 109/110/2 110/109/2
f 111/111/2 110/109/2 109/110/2
f 109/110/2 112/112/2 111/111/2
f 144/113/2 113/114/2 114/115/2
f 113/114/2 115/116/2 114/115/2
f 107/108/2 114/115/2 115/116/2
f 106/106/2 107/108/2 115/116/2
f 112/112/2 116/117/2 148/118/2
f 148/118/2 117/119/2 112/112/2
f 111/111/2 112/112/2 117/119/2
f 118/120/2 111/111/2 117/119/2
f 117/119/2 119/121/2 118/120/2
f 120/122/2 118/120/2 119/121/2
f 121/18/2 120/122/2 119/121/2
f 119/121/2 122/123/2 121/18/2
f 123/124/2 121/18/2 122/123/2
f 126/125/2 123/124/2 122/123/2
f 122/123/2 124/126/2 126/125/2
f 152/127/2 126/125/2 125/128/2
f 155/129/2 128/130/2 127/131/2
f 128/130/2 134/132/2 127/131/2
f 141/133/2 129/134/2 130/135/2
f 147/136/2 131/137/2 132/138/2
f 136/139/2 135/140/2 137/141/2
f 137/141/2 135/140/2 140/142/2
f 138/143/2 139/144/2 133/145/2
f 134/132/2 128/130/2 160/146/2
f 140/142/2 206/147/2 130/135/2
f 206/147/2 141/133/2 130/135/2
f 133/145/2 139/144/2 142/148/2
f 143/149/2 142/148/2 139/144/2
f 131/137/2 143/149/2 139/144/2
f 132/138/2 131/137/2 139/144/2
f 130/135/2 129/134/2 145/150/2
f 129/134/2 144/113/2 145/150/2
f 114/115/2 145/150/2 144/113/2
f 132/138/2 146/151/2 147/136/2
f 116/117/2 147/136/2 146/151/2
f 146/151/2 148/118/2 116/117/2
f 124/126/2 149/152/2 150/153/2
f 126/125/2 124/126/2 150/153/2
f 125/128/2 126/125/2 150/153/2
f 152/127/2 125/128/2 151/154/2
f 154/155/2 152/127/2 151/154/2
f 151/154/2 153/156/2 154/155/2
f 127/131/2 154/155/2 153/156/2
f 153/156/2 155/129/2 127/131/2
f 161/157/2 159/158/2 162/159/2
f 161/157/2 162/159/2 158/160/2
f 211/161/2 161/157/2 160/146/2
f 158/160/2 160/146/2 161/157/2
f 157/162/2 210/163/2 156/164/2
f 164/165/2 163/166/2 169/167/2
f 162/159/2 159/158/2 165/168/2
f 172/169/2 175/170/2 165/168/2
f 166/171/2 167/172/2 203/173/2
f 167/172/2 168/174/2 203/173/2
f 171/175/2 170/176/2 169/167/2
f 163/166/2 171/175/2 169/167/2
f 159/158/2 173/177/2 172/169/2
f 172/169/2 165/168/2 159/158/2
f 176/178/2 177/179/2 174/180/2
f 175/170/2 174/180/2 177/179/2
f 197/181/2 179/182/2 178/183/2
f 176/178/2 180/184/2 202/185/2
f 177/179/2 176/178/2 202/185/2
f 184/186/2 181/187/2 182/188/2
f 182/188/2 183/189/2 184/186/2
f 186/190/2 184/186/2 183/189/2
f 183/189/2 185/191/2 186/190/2
f 188/192/2 186/190/2 185/191/2
f 185/191/2 187/193/2 188/192/2
f 178/183/2 188/192/2 187/193/2
f 187/193/2 189/194/2 178/183/2
f 205/195/2 191/196/2 190/197/2
f 193/198/2 190/197/2 191/196/2
f 191/196/2 192/199/2 193/198/2
f 195/200/2 193/198/2 192/199/2
f 192/199/2 194/201/2 195/200/2
f 181/187/2 195/200/2 194/201/2
f 194/201/2 182/188/2 181/187/2
f 197/181/2 178/183/2 189/194/2
f 189/194/2 196/202/2 197/181/2
f 199/203/2 197/181/2 196/202/2
f 196/202/2 198/204/2 199/203/2
f 201/205/2 199/203/2 198/204/2
f 198/204/2 200/206/2 201/205/2
f 180/184/2 201/205/2 200/206/2
f 200/206/2 202/185/2 180/184/2
f 170/176/2 203/173/2 168/174/2
f 168/174/2 204/207/2 170/176/2
f 204/207/2 205/195/2 170/176/2
f 205/195/2 190/197/2 170/176/2
f 169/167/2 170/176/2 190/197/2
f 175/170/2 172/169/2 174/180/2
f 206/147/2 140/142/2 135/140/2
f 207/208/2 206/147/2 135/140/2
f 138/143/2 208/209/2 209/210/2
f 139/144/2 138/143/2 209/210/2
f 157/162/2 139/144/2 209/210/2
f 209/210/2 210/163/2 157/162/2
f 128/130/2 212/211/2 211/161/2
f 160/146/2 128/130/2 211/161/2
f 50/95/3 197/181/3 49/96/3
f 86/41/4 158/160/4 85/57/4
f 13/33/5 131/137/5 12/31/5
f 55/94/6 181/187/6 54/80/6
f 47/78/7 176/178/7 46/74/7
f 25/49/8 132/138/8 24/32/8
f 7/1/9 115/116/9 6/10/9
f 42/60/10 159/158/10 41/56/10
f 11/13/11 112/112/11 10/11/11
f 81/76/12 202/185/12 80/77/12
f 2/44/13 207/208/13 1/102/13
f 1/102/14 135/140/14 105/36/14
f 72/81/15 182/188/15 71/79/15
f 51/87/16 178/183/16 50/95/16
f 18/103/17 208/209/17 17/38/17
f 19/104/18 208/209/18 18/103/18
f 77/97/19 189/194/19 76/88/19
f 12/31/20 116/117/20 11/13/20
f 60/63/21 164/165/21 59/61/21
f 73/82/22 182/188/22 72/81/22
f 26/12/23 146/151/23 25/49/23
f 49/96/24 199/203/24 48/98/24
f 27/14/25 148/118/25 26/12/25
f 59/61/26 169/167/26 58/62/26
f 105/36/27 136/139/27 104/34/27
f 78/99/28 196/202/28 77/97/28
f 10/11/29 112/112/29 9/5/29
f 54/80/30 184/186/30 53/83/30
f 32/50/31 149/152/31 31/23/31
f 104/34/32 137/141/32 103/35/32
f 84/58/33 165/168/33 83/64/33
f 96/6/34 118/120/34 95/15/34
f 33/25/35 150/153/35 32/50/35
f 23/40/36 157/162/36 22/53/36
f 83/64/37 175/170/37 82/66/37
f 20/55/38 209/210/38 19/104/38
f 74/84/39 183/189/39 73/82/39
f 64/67/40 203/173/40 63/68/40
f 103/35/41 140/142/41 102/37/41
f 48/98/42 201/205/42 47/78/42
f 79/100/43 198/204/43 78/99/43
f 65/69/44 166/171/44 64/67/44
f 17/38/45 133/145/45 16/39/45
f 95/15/46 120/122/46 94/16/46
f 28/17/47 119/121/47 27/14/47
f 53/83/48 186/190/48 52/85/48
f 39/105/49 212/211/49 38/42/49
f 40/59/50 212/211/50 39/105/50
f 66/70/51 167/172/51 65/69/51
f 80/77/52 200/206/52 79/100/52
f 38/42/53 128/130/53 37/29/53
f 75/86/54 185/191/54 74/84/54
f 87/30/55 160/146/55 86/41/55
f 90/24/56 154/155/56 89/51/56
f 102/37/57 130/135/57 101/43/57
f 62/72/58 171/175/58 61/71/58
f 35/52/59 151/154/59 34/26/59
f 52/85/60 188/192/60 51/87/60
f 94/16/61 121/18/61 93/18/61
f 63/68/62 203/173/62 62/72/62
f 29/19/63 122/123/63 28/17/63
f 76/88/64 187/193/64 75/86/64
f 3/45/65 141/133/65 2/44/65
f 67/101/66 168/174/66 66/70/66
f 93/18/67 123/124/67 92/20/67
f 8/3/68 108/107/68 7/1/68
f 89/51/69 127/131/69 88/28/69
f 16/39/70 142/148/70 15/46/70
f 36/27/71 153/156/71 35/52/71
f 30/21/72 122/123/72 29/19/72
f 61/71/73 163/166/73 60/63/73
f 92/20/74 126/125/74 91/22/74
f 98/2/75 110/109/75 97/4/75
f 15/46/76 143/149/76 14/47/76
f 69/91/77 205/195/77 68/89/77
f 43/73/78 173/177/78 42/60/78
f 68/89/79 204/207/79 67/101/79
f 31/23/80 124/126/80 30/21/80
f 57/90/81 193/198/81 56/92/81
f 44/65/82 172/169/82 43/73/82
f 9/5/83 109/110/83 8/3/83
f 91/22/84 152/127/84 90/24/84
f 14/47/85 131/137/85 13/33/85
f 58/62/86 190/197/86 57/90/86
f 97/4/87 111/111/87 96/6/87
f 45/75/88 172/169/88 44/65/88
f 34/26/89 125/128/89 33/25/89
f 21/54/90 156/164/90 20/55/90
f 22/53/91 156/164/91 21/54/91
f 70/93/92 191/196/92 69/91/92
f 24/32/93 139/144/93 23/40/93
f 5/9/94 144/113/94 4/7/94
f 101/43/95 145/150/95 100/48/95
f 56/92/96 195/200/96 55/94/96
f 4/7/97 129/134/97 3/45/97
f 37/29/98 155/129/98 36/27/98
f 46/74/99 174/180/99 45/75/99
f 88/28/100 134/132/100 87/30/100
f 85/57/101 162/159/101 84/58/101
f 100/48/102 114/115/102 99/8/102
f 71/79/103 194/201/103 70/93/103
f 99/8/104 107/108/104 98/2/104
f 82/66/105 177/179/105 81/76/105
f 41/56/106 211/161/106 40/59/106
f 6/10/107 115/116/107 5/9/107
f 50/95/108 179/182/108 197/181/108
f 50/95/109 178/183/109 179/182/109
f 86/41/110 160/146/110 158/160/110
f 55/94/111 195/200/111 181/187/111
f 12/31/112 131/137/112 147/136/112
f 71/79/113 182/188/113 194/201/113
f 20/55/114 156/164/114 210/163/114
f 47/78/115 180/184/115 176/178/115
f 25/49/116 146/151/116 132/138/116
f 2/44/117 206/147/117 207/208/117
f 7/1/118 106/106/118 115/116/118
f 11/13/119 116/117/119 112/112/119
f 81/76/120 177/179/120 202/185/120
f 1/102/121 207/208/121 135/140/121
f 19/104/122 209/210/122 208/209/122
f 77/97/123 196/202/123 189/194/123
f 54/80/124 181/187/124 184/186/124
f 12/31/125 147/136/125 116/117/125
f 60/63/126 163/166/126 164/165/126
f 17/38/127 208/209/127 138/143/127
f 26/12/128 148/118/128 146/151/128
f 49/96/129 197/181/129 199/203/129
f 27/14/130 117/119/130 148/118/130
f 73/82/131 183/189/131 182/188/131
f 59/61/132 164/165/132 169/167/132
f 105/36/133 135/140/133 136/139/133
f 78/99/134 198/204/134 196/202/134
f 32/50/135 150/153/135 149/152/135
f 104/34/136 136/139/136 137/141/136
f 84/58/137 162/159/137 165/168/137
f 48/98/138 199/203/138 201/205/138
f 96/6/139 111/111/139 118/120/139
f 23/40/140 139/144/140 157/162/140
f 53/83/141 184/186/141 186/190/141
f 83/64/142 165/168/142 175/170/142
f 31/23/143 149/152/143 124/126/143
f 20/55/144 210/163/144 209/210/144
f 74/84/145 185/191/145 183/189/145
f 64/67/146 166/171/146 203/173/146
f 103/35/147 137/141/147 140/142/147
f 79/100/148 200/206/148 198/204/148
f 27/14/149 119/121/149 117/119/149
f 65/69/150 167/172/150 166/171/150
f 17/38/151 138/143/151 133/145/151
f 33/25/152 125/128/152 150/153/152
f 95/15/153 118/120/153 120/122/153
f 34/26/154 151/154/154 125/128/154
f 47/78/155 201/205/155 180/184/155
f 40/59/156 211/161/156 212/211/156
f 66/70/157 168/174/157 167/172/157
f 80/77/158 202/185/158 200/206/158
f 52/85/159 186/190/159 188/192/159
f 75/86/160 187/193/160 185/191/160
f 87/30/161 134/132/161 160/146/161
f 90/24/162 152/127/162 154/155/162
f 102/37/163 140/142/163 130/135/163
f 62/72/164 170/176/164 171/175/164
f 35/52/165 153/156/165 151/154/165
f 94/16/166 120/122/166 121/18/166
f 38/42/167 212/211/167 128/130/167
f 2/44/168 141/133/168 206/147/168
f 28/17/169 122/123/169 119/121/169
f 51/87/170 188/192/170 178/183/170
f 76/88/171 189/194/171 187/193/171
f 62/72/172 203/173/172 170/176/172
f 67/101/173 204/207/173 168/174/173
f 93/18/174 121/18/174 123/124/174
f 7/1/175 108/107/175 106/106/175
f 89/51/176 154/155/176 127/131/176
f 16/39/177 133/145/177 142/148/177
f 36/27/178 155/129/178 153/156/178
f 61/71/179 171/175/179 163/166/179
f 92/20/180 123/124/180 126/125/180
f 30/21/181 124/126/181 122/123/181
f 98/2/182 107/108/182 110/109/182
f 15/46/183 142/148/183 143/149/183
f 69/91/184 191/196/184 205/195/184
f 68/89/185 205/195/185 204/207/185
f 43/73/186 172/169/186 173/177/186
f 8/3/187 109/110/187 108/107/187
f 57/90/188 190/197/188 193/198/188
f 91/22/189 126/125/189 152/127/189
f 14/47/190 143/149/190 131/137/190
f 58/62/191 169/167/191 190/197/191
f 97/4/192 110/109/192 111/111/192
f 45/75/193 174/180/193 172/169/193
f 42/60/194 173/177/194 159/158/194
f 9/5/195 112/112/195 109/110/195
f 22/53/196 157/162/196 156/164/196
f 70/93/197 192/199/197 191/196/197
f 24/32/198 132/138/198 139/144/198
f 5/9/199 113/114/199 144/113/199
f 41/56/200 159/158/200 161/157/200
f 101/43/201 130/135/201 145/150/201
f 56/92/202 193/198/202 195/200/202
f 4/7/203 144/113/203 129/134/203
f 37/29/204 128/130/204 155/129/204
f 46/74/205 176/178/205 174/180/205
f 88/28/206 127/131/206 134/132/206
f 70/93/207 194/201/207 192/199/207
f 85/57/208 158/160/208 162/159/208
f 5/9/209 115/116/209 113/114/209
f 3/45/210 129/134/210 141/133/210
f 100/48/211 145/150/211 114/115/211
f 99/8/212 114/115/212 107/108/212
f 82/66/213 175/170/213 177/179/213
f 41/56/214 161/157/214 211/161/214
