# Blender 5.1.0
# www.blender.org
o LinkedinLogo
v 0.022019 0.125000 0.121177
v 0.022464 0.125000 0.076224
v 0.022525 0.125000 0.217500
v 0.023195 0.125000 0.055663
v 0.025371 0.125000 0.032484
v 0.031324 0.125000 0.019747
v 0.038602 0.125000 0.008989
v 0.049194 0.125000 0.000544
v 0.063901 0.125000 -0.005130
v 0.036083 0.125000 -0.055887
v 0.045773 0.125000 -0.064819
v 0.061348 0.125000 -0.074581
v 0.071689 0.125000 -0.079697
v 0.018750 0.125000 -0.038776
v 0.018750 0.125000 -0.077502
v 0.126589 0.125000 0.079335
v 0.127528 0.125000 0.217500
v 0.218929 0.125000 0.063678
v 0.217382 0.125000 0.217498
v 0.087557 0.125000 -0.005870
v 0.113724 0.125000 0.007839
v 0.126783 0.125000 0.055679
v 0.126131 0.125000 0.032259
v 0.120853 0.125000 0.018242
v 0.085656 0.125000 -0.084352
v 0.106454 0.125000 -0.086043
v 0.127091 0.125000 -0.084677
v 0.147365 0.125000 -0.081034
v 0.217922 0.125000 0.035124
v 0.216310 0.125000 0.014547
v 0.213168 0.125000 -0.006064
v 0.194061 0.125000 -0.050390
v 0.183669 0.125000 -0.062302
v 0.207643 0.125000 -0.026981
v 0.200716 0.125000 -0.039795
v 0.102536 0.125000 -0.001109
v 0.169288 0.125000 -0.074236
v -0.312007 0.000000 0.272175
v -0.270926 0.000000 0.312192
v -0.282978 0.000000 0.308860
v -0.291246 0.000000 0.304440
v -0.298493 0.000000 0.298493
v -0.304440 0.000000 0.291246
v -0.308860 0.000000 0.282978
v -0.312500 0.125000 0.264676
v -0.272175 0.125000 0.312007
v -0.311581 0.125000 0.274006
v -0.308860 0.125000 0.282978
v -0.304440 0.125000 0.291246
v -0.298493 0.125000 0.298493
v -0.291246 0.125000 0.304440
v -0.282978 0.125000 0.308860
v -0.272175 -0.000000 -0.312007
v -0.312192 0.000000 -0.270926
v -0.308860 0.000000 -0.282978
v -0.304440 0.000000 -0.291246
v -0.298493 0.000000 -0.298493
v -0.291246 0.000000 -0.304440
v -0.282978 0.000000 -0.308860
v -0.264676 0.125000 -0.312500
v -0.312007 0.125000 -0.272175
v -0.274006 0.125000 -0.311581
v -0.282978 0.125000 -0.308860
v -0.291246 0.125000 -0.304440
v -0.298493 0.125000 -0.298493
v -0.304440 0.125000 -0.291246
v -0.308860 0.125000 -0.282978
v 0.272175 -0.000000 0.312007
v 0.312192 -0.000000 0.270926
v 0.308860 0.000000 0.282978
v 0.304440 0.000000 0.291246
v 0.298493 0.000000 0.298493
v 0.291246 0.000000 0.304440
v 0.282978 0.000000 0.308860
v 0.312007 0.125000 0.272175
v 0.270926 0.125000 0.312192
v 0.282978 0.125000 0.308860
v 0.291246 0.125000 0.304440
v 0.298493 0.125000 0.298493
v 0.304440 0.125000 0.291246
v 0.308860 0.125000 0.282978
v 0.312007 -0.000000 -0.272175
v 0.270926 0.000000 -0.312192
v 0.282978 0.000000 -0.308860
v 0.291246 0.000000 -0.304440
v 0.298493 0.000000 -0.298493
v 0.304440 0.000000 -0.291246
v 0.308860 0.000000 -0.282978
v 0.272175 0.125000 -0.312007
v 0.312192 0.125000 -0.270926
v 0.308860 0.125000 -0.282978
v 0.304440 0.125000 -0.291246
v 0.298493 0.125000 -0.298493
v 0.291246 0.125000 -0.304440
v 0.282978 0.125000 -0.308860
v 0.217398 0.000000 0.217499
v 0.127525 0.000000 0.217500
v 0.126589 0.000000 0.079552
v 0.022520 0.000000 0.217500
v 0.218939 0.000000 0.063632
v 0.217922 0.000000 0.035124
v 0.216310 0.000000 0.014547
v 0.126131 0.000000 0.032258
v 0.126783 0.000000 0.055679
v 0.113724 0.000000 0.007839
v 0.120853 0.000000 0.018242
v 0.025371 0.000000 0.032484
v 0.031324 0.000000 0.019747
v 0.038602 0.000000 0.008989
v 0.022907 0.000000 0.059543
v 0.022018 0.000000 0.120368
v -0.067500 -0.000000 0.217500
v -0.067500 0.125000 0.217500
v 0.213168 0.000000 -0.006064
v 0.207643 0.000000 -0.026981
v 0.200716 0.000000 -0.039795
v 0.194061 0.000000 -0.050390
v 0.063901 0.000000 -0.005130
v 0.087557 0.000000 -0.005870
v 0.102536 0.000000 -0.001109
v 0.049194 0.000000 0.000544
v -0.067500 0.125000 -0.077474
v 0.183669 0.000000 -0.062302
v 0.044950 0.000000 -0.064256
v 0.018750 0.000000 -0.038776
v 0.169288 0.000000 -0.074236
v 0.061348 0.000000 -0.074581
v -0.067500 -0.000000 -0.077477
v 0.018750 0.000000 -0.077501
v 0.147348 0.000000 -0.081035
v 0.071689 0.000000 -0.079697
v 0.127091 0.000000 -0.084677
v 0.106454 0.000000 -0.086043
v 0.085656 0.000000 -0.084352
v -0.218912 0.125000 -0.077650
v -0.218912 0.000000 -0.077650
v -0.127536 0.125000 -0.077650
v -0.127536 0.000000 -0.077650
v -0.127536 -0.000000 0.218123
v -0.127536 0.125000 0.218123
v -0.218912 0.000000 0.218123
v -0.218912 0.125000 0.218123
v -0.221993 0.125000 -0.192851
v -0.221993 -0.000000 -0.192851
v -0.217082 0.125000 -0.202039
v -0.217082 -0.000000 -0.202039
v -0.152561 0.000000 -0.221611
v -0.152561 0.125000 -0.221611
v -0.162530 0.000000 -0.224635
v -0.162530 0.125000 -0.224635
v -0.225017 0.125000 -0.182882
v -0.225017 -0.000000 -0.182882
v -0.135321 0.000000 -0.210091
v -0.135321 0.125000 -0.210091
v -0.143374 0.000000 -0.128330
v -0.143374 0.125000 -0.128330
v -0.152561 0.000000 -0.123420
v -0.152561 0.125000 -0.123420
v -0.128713 0.000000 -0.202039
v -0.128713 0.125000 -0.202039
v -0.162530 0.125000 -0.120396
v -0.162530 -0.000000 -0.120396
v -0.193233 0.125000 -0.123420
v -0.193233 -0.000000 -0.123420
v -0.226038 0.125000 -0.172515
v -0.226038 -0.000000 -0.172515
v -0.193233 0.000000 -0.221611
v -0.193233 0.125000 -0.221611
v -0.202421 0.125000 -0.128330
v -0.202421 -0.000000 -0.128330
v -0.120778 0.125000 -0.162148
v -0.120778 -0.000000 -0.162148
v -0.135321 0.000000 -0.134939
v -0.135321 0.125000 -0.134939
v -0.123802 0.125000 -0.152179
v -0.123802 -0.000000 -0.152179
v -0.119757 0.000000 -0.172515
v -0.119757 0.125000 -0.172515
v -0.210473 0.125000 -0.210091
v -0.210473 -0.000000 -0.210091
v -0.202421 0.000000 -0.216700
v -0.202421 0.125000 -0.216700
v -0.172897 0.125000 -0.119375
v -0.172897 -0.000000 -0.119375
v -0.172897 0.000000 -0.225656
v -0.172897 0.125000 -0.225656
v -0.120778 0.000000 -0.182882
v -0.120778 0.125000 -0.182882
v -0.143374 0.000000 -0.216700
v -0.143374 0.125000 -0.216700
v -0.123802 0.000000 -0.192851
v -0.123802 0.125000 -0.192851
v -0.221993 0.125000 -0.152179
v -0.221993 -0.000000 -0.152179
v -0.217082 0.125000 -0.142992
v -0.217082 -0.000000 -0.142992
v -0.225017 0.125000 -0.162148
v -0.225017 -0.000000 -0.162148
v -0.210473 0.125000 -0.134939
v -0.210473 -0.000000 -0.134939
v -0.183264 0.125000 -0.120396
v -0.183264 -0.000000 -0.120396
v -0.128713 0.000000 -0.142992
v -0.128713 0.125000 -0.142992
v -0.183264 0.125000 -0.224635
v -0.183264 -0.000000 -0.224635
vn -1.0000 -0.0000 0.0052
vn -0.9999 -0.0016 -0.0146
vn -0.0000 -0.0000 -1.0000
vn -0.9959 -0.0000 -0.0907
vn -0.6235 -0.0000 -0.7818
vn -0.3599 -0.0000 -0.9330
vn -0.8282 -0.0000 -0.5604
vn -0.9059 -0.0000 -0.4234
vn 0.4434 -0.0000 0.8963
vn 0.5311 0.0003 0.8473
vn 0.0003 -0.0000 1.0000
vn 1.0000 -0.0000 -0.0068
vn -0.9999 -0.0001 -0.0100
vn 0.6246 -0.0000 -0.7809
vn 0.3029 -0.0000 -0.9530
vn 0.9996 -0.0000 -0.0278
vn 0.8249 -0.0000 -0.5653
vn 0.9359 -0.0000 -0.3524
vn 0.0810 -0.0000 0.9967
vn -0.1769 -0.0000 0.9842
vn -0.0661 -0.0000 0.9978
vn -0.9994 -0.0000 0.0357
vn -0.9886 -0.0000 0.1507
vn -0.9969 -0.0000 0.0781
vn -0.8797 -0.0000 0.4755
vn -0.8468 -0.0000 0.5319
vn -0.7536 -0.0000 0.6573
vn -0.2960 -0.0000 0.9552
vn -0.9668 -0.0000 0.2554
vn -0.0312 -0.0000 -0.9995
vn 0.3162 -0.0000 0.9487
vn 1.0000 -0.0000 0.0081
vn -1.0000 -0.0000 -0.0000
vn 0.7025 -0.0000 0.7117
vn -0.6386 -0.0000 0.7696
vn -0.2665 -0.0012 0.9638
vn -0.4714 -0.0000 0.8819
vn -0.6344 -0.0000 0.7730
vn -0.7730 -0.0000 0.6344
vn -0.8819 -0.0000 0.4714
vn -0.9601 -0.0000 0.2797
vn -0.0980 0.0020 -0.9952
vn -0.2903 -0.0010 -0.9569
vn -0.4714 -0.0000 -0.8819
vn -0.6344 -0.0000 -0.7730
vn -0.7730 -0.0000 -0.6344
vn -0.8819 -0.0000 -0.4714
vn -0.9601 -0.0000 -0.2797
vn 0.9638 0.0012 -0.2665
vn 0.8819 -0.0000 -0.4714
vn 0.7730 -0.0000 -0.6344
vn 0.6344 -0.0000 -0.7730
vn 0.4714 -0.0000 -0.8819
vn 0.2797 -0.0000 -0.9601
vn 0.2665 0.0012 0.9638
vn 0.4714 -0.0000 0.8819
vn 0.6344 -0.0000 0.7730
vn 0.7730 -0.0000 0.6344
vn 0.8819 -0.0000 0.4714
vn 0.9601 -0.0000 0.2797
vn -0.0000 -1.0000 -0.0000
vn -1.0000 -0.0039 0.0003
vn 0.0003 -0.0015 1.0000
vn -0.0000 1.0000 -0.0000
vn -0.0003 -0.0039 -1.0000
vn 1.0000 -0.0015 -0.0003
vn -0.0000 -0.0000 1.0000
vn -0.9952 -0.0000 -0.0980
vn 0.9952 -0.0000 0.0980
vn -0.9569 -0.0000 0.2903
vn -0.9952 -0.0000 0.0980
vn 0.0980 -0.0000 0.9952
vn 0.0980 -0.0000 -0.9952
vn -0.0980 -0.0000 -0.9952
vn 0.2903 -0.0000 0.9569
vn 0.9569 -0.0000 0.2903
vn -0.0980 -0.0000 0.9952
vn 0.9952 -0.0000 -0.0980
vn -0.9569 -0.0000 -0.2903
vn 0.2903 -0.0000 -0.9569
vn -0.2903 -0.0000 0.9569
vn -0.2903 -0.0000 -0.9569
vn 0.9569 -0.0000 -0.2903
vn -1.0000 -0.0000 0.0053
vn -1.0000 0.0001 -0.0099
vn -0.9956 -0.0006 -0.0935
vn -0.8283 -0.0000 -0.5604
vn 0.5328 -0.0000 0.8462
vn 0.6972 0.0015 0.7169
vn 0.6778 -0.0011 0.7352
vn -0.9999 -0.0001 -0.0101
vn -0.9994 -0.0001 0.0352
vn -0.9994 0.0012 -0.0355
vn 1.0000 -0.0000 0.0082
vn 1.0000 -0.0000 -0.0000
vn -0.2962 -0.0000 0.9551
vn -0.2797 -0.0000 0.9601
vn -0.9569 -0.0010 0.2903
vn -0.9952 0.0020 0.0980
vn -0.2797 -0.0000 -0.9601
vn -0.9638 -0.0012 -0.2665
vn 0.9601 -0.0000 -0.2797
vn 0.2665 -0.0012 -0.9638
vn 0.2797 -0.0000 0.9601
vn 0.9638 -0.0012 0.2665
vn -1.0000 0.0015 -0.0009
vn -0.0003 0.0015 1.0000
vn 0.0009 0.0015 -1.0000
vn 1.0000 0.0015 0.0003
vt 0.000000 0.000000
vt 0.625000 0.983860
vt 0.375000 0.988191
vt 0.375000 0.983358
vt 0.625000 0.988191
vt 0.375000 0.991498
vt 0.625000 0.991498
vt 0.375000 1.000000
vt 0.625000 0.000000
vt 0.375000 0.008502
vt 0.375000 0.000000
vt 0.625000 0.008502
vt 0.375000 0.011809
vt 0.625000 0.011809
vt 0.375000 0.016139
vt 0.375000 0.266139
vt 0.625000 0.265398
vt 0.625000 0.269130
vt 0.625000 0.261809
vt 0.375000 0.261809
vt 0.625000 0.258502
vt 0.375000 0.258502
vt 0.625000 0.250000
vt 0.375000 0.250000
vt 0.625000 0.241498
vt 0.375000 0.241498
vt 0.625000 0.238191
vt 0.375000 0.238191
vt 0.625000 0.233861
vt 0.374902 0.516140
vt 0.625485 0.511809
vt 0.625082 0.516642
vt 0.374515 0.511809
vt 0.626075 0.508502
vt 0.373925 0.508502
vt 0.626868 0.501868
vt 0.373132 0.501868
vt 0.627834 0.495407
vt 0.372166 0.495407
vt 0.628936 0.492613
vt 0.371064 0.492613
vt 0.630380 0.489339
vt 0.369620 0.760661
vt 0.628936 0.757387
vt 0.630547 0.761013
vt 0.371064 0.757387
vt 0.627834 0.754593
vt 0.372166 0.754593
vt 0.626868 0.748132
vt 0.373132 0.748132
vt 0.626075 0.741498
vt 0.373925 0.741498
vt 0.625485 0.738191
vt 0.374515 0.738191
vt 0.625098 0.733861
vt 0.332624 0.608581
vt 0.330109 0.604172
vt 0.625000 0.019130
vt 0.375000 0.233358
vt 0.829717 0.572870
vt 0.833033 0.570262
vt 0.836489 0.593516
vt 0.369453 0.488987
vt 0.374918 0.733359
vt 0.303606 0.638456
vt 0.265790 0.633227
vt 0.278859 0.622859
vt 0.589835 0.750000
vt 0.500000 0.500000
vt 0.500000 0.750000
vt 0.589835 0.250000
vt 0.500000 0.250000
vt 0.500000 1.000000
vt 0.718750 0.906196
vt 0.750000 0.750000
vt 0.718750 0.750000
vt 0.625000 0.750000
vt 0.656250 0.906195
vt 0.656250 0.750000
vt 0.687500 0.750000
vt 0.218750 0.906196
vt 0.250000 0.750000
vt 0.218750 0.750000
vt 0.781250 0.906196
vt 0.812500 0.750000
vt 0.781250 0.750000
vt 0.843750 0.906196
vt 0.875000 0.750000
vt 0.843750 0.750000
vt 0.000000 0.906196
vt 0.031250 0.750000
vt 0.000000 0.750000
vt 0.468750 0.906196
vt 0.500000 0.750000
vt 0.468750 0.750000
vt 0.156250 0.906196
vt 0.187500 0.750000
vt 0.156250 0.750000
vt 0.500000 0.906196
vt 0.531250 0.750000
vt 0.031250 0.906196
vt 0.062500 0.750000
vt 0.875000 0.906196
vt 0.906250 0.750000
vt 0.406250 0.906196
vt 0.437500 0.750000
vt 0.406250 0.750000
vt 0.906250 0.906196
vt 0.937500 0.750000
vt 0.593750 0.906196
vt 0.593750 0.750000
vt 0.182616 0.533208
vt 0.178299 0.533773
vt 0.141139 0.500295
vt 0.093750 0.906196
vt 0.125000 0.750000
vt 0.093750 0.750000
vt 0.187500 0.906196
vt 0.562500 0.906196
vt 0.562500 0.750000
vt 0.375000 0.906196
vt 0.375000 0.750000
vt 0.312500 0.906196
vt 0.343750 0.750000
vt 0.312500 0.750000
vt 0.968750 0.750000
vt 1.000000 0.906196
vt 1.000000 0.750000
vt 0.812500 0.906196
vt 0.250000 0.906196
vt 0.281250 0.750000
vt 0.687500 0.906196
vt 0.817382 0.533209
vt 0.855870 0.500000
vt 0.821699 0.533775
vt 0.437500 0.906196
vt 0.062500 0.906196
vt 0.937500 0.906196
vt 0.281250 0.906196
vt 0.125000 0.906196
vt 0.343750 0.906196
vt 0.625000 1.000000
vt 0.625000 0.015398
vt 0.125294 0.733860
vt 0.125245 0.516642
vt 0.163471 0.593445
vt 0.160549 0.555274
vt 0.160969 0.559429
vt 0.163529 0.712817
vt 0.201525 0.714136
vt 0.201075 0.593013
vt 0.226656 0.714927
vt 0.162214 0.563409
vt 0.164236 0.567064
vt 0.166957 0.570255
vt 0.170272 0.572861
vt 0.182428 0.576291
vt 0.174054 0.574782
vt 0.178159 0.575942
vt 0.225747 0.593083
vt 0.186700 0.575812
vt 0.190811 0.574519
vt 0.204011 0.558454
vt 0.202730 0.562562
vt 0.260928 0.592715
vt 0.204473 0.554197
vt 0.200679 0.566362
vt 0.194604 0.572457
vt 0.197936 0.569703
vt 0.271473 0.598226
vt 0.260757 0.608860
vt 0.278090 0.593832
vt 0.282272 0.591672
vt 0.287891 0.589705
vt 0.296176 0.588997
vt 0.339201 0.639431
vt 0.339644 0.651164
vt 0.304312 0.589604
vt 0.338546 0.630977
vt 0.312224 0.591182
vt 0.320696 0.594136
vt 0.337336 0.622506
vt 0.335246 0.613889
vt 0.326171 0.599180
vt 0.795527 0.554200
vt 0.712109 0.589705
vt 0.795987 0.558456
vt 0.774253 0.593083
vt 0.703825 0.588997
vt 0.797267 0.562565
vt 0.660799 0.639431
vt 0.660356 0.651183
vt 0.739072 0.592715
vt 0.799317 0.566365
vt 0.802059 0.569706
vt 0.798888 0.593049
vt 0.661454 0.630977
vt 0.805389 0.572461
vt 0.809180 0.574524
vt 0.662664 0.622506
vt 0.664754 0.613889
vt 0.667376 0.608581
vt 0.669891 0.604172
vt 0.673828 0.599180
vt 0.687770 0.591184
vt 0.679304 0.594136
vt 0.695688 0.589604
vt 0.813289 0.575818
vt 0.817560 0.576299
vt 0.717728 0.591672
vt 0.821829 0.575951
vt 0.721910 0.593832
vt 0.739244 0.608860
vt 0.732180 0.601696
vt 0.728231 0.597945
vt 0.825934 0.574792
vt 0.798275 0.714364
vt 0.875000 0.730870
vt 0.836206 0.713183
vt 0.874705 0.516140
vt 0.839445 0.555277
vt 0.839024 0.559434
vt 0.837778 0.563414
vt 0.835755 0.567070
vt 0.141642 0.749755
vt 0.128224 0.741498
vt 0.126456 0.738191
vt 0.133502 0.746776
vt 0.130603 0.744397
vt 0.136809 0.748544
vt 0.264101 0.716293
vt 0.341992 0.716407
vt 0.307098 0.717310
vt 0.304094 0.658252
vt 0.262658 0.675254
vt 0.303971 0.648241
vt 0.262579 0.649806
vt 0.298667 0.628271
vt 0.301492 0.632610
vt 0.288296 0.622549
vt 0.294240 0.624537
vt 0.272962 0.625227
vt 0.268709 0.628747
vt 0.263414 0.638528
vt 0.658008 0.716407
vt 0.692902 0.717310
vt 0.858860 0.749705
vt 0.735899 0.716293
vt 0.866498 0.746776
vt 0.863191 0.748544
vt 0.871776 0.741498
vt 0.869397 0.744397
vt 0.874632 0.734602
vt 0.873544 0.738191
vt 0.773344 0.714927
vt 0.695909 0.658160
vt 0.737336 0.675593
vt 0.737385 0.648185
vt 0.737575 0.656764
vt 0.734210 0.633227
vt 0.736586 0.638528
vt 0.696029 0.648241
vt 0.727037 0.625227
vt 0.731292 0.628747
vt 0.711704 0.622549
vt 0.721141 0.622859
vt 0.696394 0.638456
vt 0.701333 0.628271
vt 0.705760 0.624537
vt 0.698508 0.632610
vt 0.589835 0.500000
vt 0.500000 0.000000
vt 0.589835 0.000000
vt 0.589835 1.000000
vt 0.750000 0.906196
vt 0.625000 0.906196
vt 0.531250 0.906196
vt 0.204095 0.549960
vt 0.191070 0.534550
vt 0.186930 0.533468
vt 0.136809 0.501456
vt 0.130603 0.505603
vt 0.133502 0.503224
vt 0.126456 0.511809
vt 0.128224 0.508502
vt 0.160970 0.551100
vt 0.162219 0.547065
vt 0.202889 0.545912
vt 0.200896 0.542212
vt 0.164250 0.543319
vt 0.166987 0.540003
vt 0.198191 0.539006
vt 0.194873 0.536419
vt 0.170329 0.537241
vt 0.174149 0.535137
vt 0.968750 0.906196
vt 0.839024 0.551103
vt 0.837776 0.547067
vt 0.871776 0.508502
vt 0.873544 0.511809
vt 0.866498 0.503224
vt 0.869397 0.505603
vt 0.859602 0.500368
vt 0.863191 0.501456
vt 0.808929 0.534551
vt 0.813069 0.533469
vt 0.795904 0.549963
vt 0.797110 0.545914
vt 0.835745 0.543321
vt 0.833009 0.540005
vt 0.799103 0.542213
vt 0.801809 0.539007
vt 0.829668 0.537242
vt 0.805126 0.536421
vt 0.825848 0.535138
s 0
f 99/1/1 1/1/1 111/1/1
f 111/1/2 2/1/2 110/1/2
f 113/1/3 3/1/3 112/1/3
f 110/1/4 5/1/4 107/1/4
f 109/1/5 8/1/5 121/1/5
f 8/1/6 118/1/6 121/1/6
f 6/1/7 109/1/7 108/1/7
f 107/1/8 6/1/8 108/1/8
f 131/1/9 12/1/9 127/1/9
f 124/1/10 12/1/10 11/1/10
f 128/1/11 15/1/11 122/1/11
f 98/1/12 17/1/12 97/1/12
f 96/1/13 19/1/13 100/1/13
f 120/1/14 21/1/14 105/1/14
f 20/1/15 120/1/15 119/1/15
f 103/1/16 22/1/16 104/1/16
f 21/1/17 106/1/17 105/1/17
f 106/1/18 23/1/18 103/1/18
f 134/1/19 26/1/19 25/1/19
f 132/1/20 28/1/20 27/1/20
f 133/1/21 27/1/21 26/1/21
f 100/1/22 29/1/22 101/1/22
f 102/1/23 31/1/23 114/1/23
f 101/1/24 30/1/24 102/1/24
f 115/1/25 35/1/25 116/1/25
f 117/1/26 35/1/26 32/1/26
f 117/1/27 33/1/27 123/1/27
f 130/1/28 126/1/28 28/1/28
f 114/1/29 34/1/29 115/1/29
f 9/1/30 119/1/30 118/1/30
f 131/1/31 25/1/31 13/1/31
f 104/1/32 16/1/32 98/1/32
f 125/1/33 15/1/33 129/1/33
f 125/1/34 10/1/34 14/1/34
f 126/1/35 33/1/35 37/1/35
f 46/2/36 40/3/36 39/4/36
f 52/5/37 41/6/37 40/3/37
f 51/7/38 42/8/38 41/6/38
f 50/9/39 43/10/39 42/11/39
f 49/12/40 44/13/40 43/10/40
f 48/14/41 38/15/41 44/13/41
f 53/16/42 62/17/42 60/18/42
f 53/16/43 63/19/43 62/17/43
f 59/20/44 64/21/44 63/19/44
f 58/22/45 65/23/45 64/21/45
f 57/24/46 66/25/46 65/23/46
f 56/26/47 67/27/47 66/25/47
f 55/28/48 61/29/48 67/27/48
f 82/30/49 91/31/49 90/32/49
f 88/33/50 92/34/50 91/31/50
f 87/35/51 93/36/51 92/34/51
f 86/37/52 94/38/52 93/36/52
f 85/39/53 95/40/53 94/38/53
f 84/41/54 89/42/54 95/40/54
f 68/43/55 77/44/55 76/45/55
f 74/46/56 78/47/56 77/44/56
f 73/48/57 79/49/57 78/47/57
f 72/50/58 80/51/58 79/49/58
f 71/52/59 81/53/59 80/51/59
f 70/54/60 75/55/60 81/53/60
f 82/30/61 116/56/61 117/57/61
f 45/58/62 54/59/62 38/15/62
f 76/45/63 39/4/63 68/43/63
f 169/60/64 199/61/64 135/62/64
f 60/18/65 83/63/65 53/16/65
f 90/32/66 69/64/66 82/30/66
f 103/65/61 108/66/61 118/67/61
f 140/68/33 138/69/33 139/70/33
f 138/69/67 135/71/67 136/72/67
f 141/73/3 140/68/3 139/70/3
f 171/74/68 177/75/68 172/76/68
f 173/77/46 204/78/46 203/79/46
f 204/78/47 176/80/47 203/79/47
f 151/81/69 166/82/69 152/83/69
f 188/84/70 191/85/70 187/86/70
f 177/75/71 188/84/71 187/86/71
f 160/87/39 153/88/39 159/89/39
f 186/90/72 206/91/72 185/92/72
f 201/93/73 184/94/73 202/95/73
f 145/96/59 144/97/59 146/98/59
f 183/99/74 162/100/74 184/94/74
f 205/101/75 167/102/75 206/91/75
f 154/103/38 189/104/38 153/88/38
f 169/105/53 164/106/53 170/107/53
f 190/108/37 147/109/37 189/104/37
f 156/110/45 173/77/45 155/111/45
f 185/112/61 206/113/61 53/114/61
f 182/115/57 180/116/57 181/117/57
f 143/118/76 152/83/76 144/97/76
f 158/119/44 155/111/44 157/120/44
f 199/121/52 170/107/52 200/122/52
f 193/123/50 196/124/50 194/125/50
f 149/126/77 186/127/77 185/128/77
f 192/129/40 159/89/40 191/85/40
f 165/130/78 198/131/78 166/82/78
f 175/132/79 172/76/79 176/80/79
f 186/133/64 60/134/64 205/135/64
f 163/136/80 202/95/80 164/106/80
f 168/137/56 181/117/56 167/102/56
f 148/138/81 149/126/81 147/109/81
f 162/100/82 158/119/82 157/120/82
f 197/139/83 194/125/83 198/131/83
f 179/140/58 146/98/58 180/116/58
f 195/141/51 200/122/51 196/124/51
f 99/1/84 3/1/84 1/1/84
f 111/1/85 1/1/85 2/1/85
f 110/1/86 4/1/86 5/1/86
f 109/1/5 7/1/5 8/1/5
f 8/1/6 9/1/6 118/1/6
f 6/1/87 7/1/87 109/1/87
f 107/1/8 5/1/8 6/1/8
f 131/1/9 13/1/9 12/1/9
f 124/1/88 127/1/88 12/1/88
f 125/1/89 124/1/89 10/1/89
f 124/1/90 11/1/90 10/1/90
f 128/1/11 129/1/11 15/1/11
f 98/1/12 16/1/12 17/1/12
f 100/1/91 19/1/91 18/1/91
f 97/1/3 17/1/3 96/1/3
f 17/1/3 19/1/3 96/1/3
f 103/1/16 23/1/16 22/1/16
f 21/1/17 24/1/17 106/1/17
f 106/1/18 24/1/18 23/1/18
f 134/1/19 133/1/19 26/1/19
f 132/1/20 130/1/20 28/1/20
f 133/1/21 132/1/21 27/1/21
f 100/1/92 18/1/92 29/1/92
f 102/1/23 30/1/23 31/1/23
f 101/1/24 29/1/24 30/1/24
f 126/1/35 123/1/35 33/1/35
f 115/1/25 34/1/25 35/1/25
f 117/1/26 116/1/26 35/1/26
f 117/1/27 32/1/27 33/1/27
f 114/1/29 31/1/29 34/1/29
f 9/1/30 20/1/30 119/1/30
f 131/1/31 134/1/31 25/1/31
f 110/1/93 2/1/93 4/1/93
f 104/1/94 22/1/94 16/1/94
f 112/1/95 122/1/95 113/1/95
f 112/1/3 3/1/3 99/1/3
f 128/1/95 122/1/95 112/1/95
f 125/1/33 14/1/33 15/1/33
f 120/1/14 36/1/14 21/1/14
f 20/1/15 36/1/15 120/1/15
f 28/1/96 126/1/96 37/1/96
f 46/2/97 52/5/97 40/3/97
f 52/5/37 51/7/37 41/6/37
f 51/7/38 50/142/38 42/8/38
f 50/9/39 49/12/39 43/10/39
f 49/12/40 48/14/40 44/13/40
f 48/14/98 47/143/98 38/15/98
f 47/143/99 45/58/99 38/15/99
f 53/16/100 59/20/100 63/19/100
f 59/20/44 58/22/44 64/21/44
f 58/22/45 57/24/45 65/23/45
f 57/24/46 56/26/46 66/25/46
f 56/26/47 55/28/47 67/27/47
f 55/28/101 54/59/101 61/29/101
f 82/30/102 88/33/102 91/31/102
f 88/33/50 87/35/50 92/34/50
f 87/35/51 86/37/51 93/36/51
f 86/37/52 85/39/52 94/38/52
f 85/39/53 84/41/53 95/40/53
f 84/41/103 83/63/103 89/42/103
f 68/43/104 74/46/104 77/44/104
f 74/46/56 73/48/56 78/47/56
f 73/48/57 72/50/57 79/49/57
f 72/50/58 71/52/58 80/51/58
f 71/52/59 70/54/59 81/53/59
f 70/54/105 69/64/105 75/55/105
f 38/144/61 54/145/61 136/146/61
f 54/145/61 166/147/61 198/148/61
f 54/145/61 198/148/61 136/146/61
f 136/146/61 141/149/61 38/144/61
f 139/150/61 138/151/61 112/152/61
f 136/146/61 198/148/61 194/153/61
f 136/146/61 194/153/61 196/154/61
f 136/146/61 196/154/61 200/155/61
f 136/146/61 200/155/61 170/156/61
f 138/151/61 136/146/61 184/157/61
f 136/146/61 170/156/61 164/158/61
f 136/146/61 164/158/61 202/159/61
f 128/160/61 112/152/61 138/151/61
f 136/146/61 202/159/61 184/157/61
f 138/151/61 184/157/61 162/161/61
f 138/151/61 162/161/61 157/162/61
f 172/163/61 128/160/61 176/164/61
f 129/165/61 128/160/61 177/166/61
f 128/160/61 138/151/61 203/167/61
f 138/151/61 157/162/61 155/168/61
f 138/151/61 155/168/61 173/169/61
f 128/160/61 172/163/61 177/166/61
f 124/170/61 125/171/61 129/165/61
f 138/151/61 173/169/61 203/167/61
f 127/172/61 124/170/61 129/165/61
f 131/173/61 127/172/61 129/165/61
f 128/160/61 203/167/61 176/164/61
f 134/174/61 131/173/61 129/165/61
f 134/174/61 129/165/61 177/166/61
f 177/166/61 82/30/61 134/174/61
f 134/174/61 82/30/61 133/175/61
f 82/30/61 69/64/61 101/176/61
f 69/64/61 100/177/61 101/176/61
f 132/178/61 133/175/61 82/30/61
f 82/30/61 101/176/61 102/179/61
f 130/180/61 132/178/61 82/30/61
f 126/181/61 130/180/61 82/30/61
f 82/30/61 102/179/61 114/182/61
f 82/30/61 114/182/61 115/183/61
f 123/184/61 126/181/61 82/30/61
f 117/57/61 123/184/61 82/30/61
f 82/30/61 115/183/61 116/56/61
f 45/58/106 61/29/106 54/59/106
f 76/45/107 46/2/107 39/4/107
f 90/32/64 178/185/64 25/186/64
f 178/185/64 171/187/64 122/188/64
f 90/32/64 25/186/64 26/189/64
f 171/187/64 175/190/64 122/188/64
f 75/55/64 90/32/64 29/191/64
f 18/192/64 75/55/64 29/191/64
f 25/186/64 178/185/64 15/193/64
f 175/190/64 204/194/64 122/188/64
f 204/194/64 174/195/64 137/196/64
f 30/197/64 29/191/64 90/32/64
f 15/193/64 178/185/64 122/188/64
f 174/195/64 156/198/64 137/196/64
f 156/198/64 158/199/64 137/196/64
f 31/200/64 30/197/64 90/32/64
f 34/201/64 31/200/64 90/32/64
f 35/202/64 34/201/64 90/32/64
f 32/203/64 35/202/64 90/32/64
f 33/204/64 32/203/64 90/32/64
f 28/205/64 37/206/64 90/32/64
f 37/206/64 33/204/64 90/32/64
f 27/207/64 28/205/64 90/32/64
f 27/207/64 90/32/64 26/189/64
f 158/199/64 161/208/64 137/196/64
f 161/208/64 183/209/64 137/196/64
f 122/188/64 204/194/64 137/196/64
f 13/210/64 25/186/64 15/193/64
f 183/209/64 201/211/64 135/62/64
f 12/212/64 13/210/64 15/193/64
f 15/193/64 14/213/64 10/214/64
f 15/193/64 10/214/64 11/215/64
f 15/193/64 11/215/64 12/212/64
f 137/196/64 183/209/64 135/62/64
f 201/211/64 163/216/64 135/62/64
f 163/216/64 169/60/64 135/62/64
f 137/196/64 140/217/64 122/188/64
f 45/218/64 142/219/64 135/62/64
f 61/220/64 45/218/64 135/62/64
f 165/221/64 61/220/64 197/222/64
f 61/220/64 135/62/64 197/222/64
f 193/223/64 197/222/64 135/62/64
f 195/224/64 193/223/64 135/62/64
f 199/61/64 195/224/64 135/62/64
f 60/18/108 89/42/108 83/63/108
f 90/32/109 75/55/109 69/64/109
f 38/144/61 141/149/61 39/225/61
f 43/226/61 44/227/61 38/144/61
f 41/228/61 42/229/61 38/144/61
f 42/229/61 43/226/61 38/144/61
f 39/225/61 40/230/61 41/228/61
f 68/43/61 39/225/61 99/231/61
f 74/46/61 68/43/61 72/50/61
f 72/50/61 73/48/61 74/46/61
f 70/54/61 71/52/61 72/50/61
f 69/64/61 70/54/61 72/50/61
f 96/232/61 100/177/61 69/64/61
f 39/225/61 41/228/61 38/144/61
f 39/225/61 141/149/61 139/150/61
f 39/225/61 139/150/61 112/152/61
f 69/64/61 72/50/61 68/43/61
f 69/64/61 68/43/61 96/232/61
f 97/233/61 96/232/61 68/43/61
f 97/233/61 68/43/61 99/231/61
f 112/152/61 99/231/61 39/225/61
f 98/234/61 97/233/61 111/235/61
f 103/65/61 104/236/61 108/66/61
f 104/236/61 98/234/61 110/237/61
f 105/238/61 106/239/61 119/240/61
f 106/239/61 103/65/61 119/240/61
f 119/240/61 120/241/61 105/238/61
f 121/242/61 118/67/61 108/66/61
f 118/67/61 119/240/61 103/65/61
f 108/66/61 109/243/61 121/242/61
f 110/237/61 107/244/61 104/236/61
f 107/244/61 108/66/61 104/236/61
f 111/235/61 110/237/61 98/234/61
f 99/231/61 111/235/61 97/233/61
f 19/245/64 75/55/64 18/192/64
f 75/55/64 19/245/64 76/45/64
f 19/245/64 17/246/64 76/45/64
f 81/53/64 75/55/64 76/45/64
f 79/49/64 80/51/64 81/53/64
f 77/44/64 78/47/64 79/49/64
f 76/45/64 77/44/64 79/49/64
f 46/247/64 76/45/64 3/248/64
f 51/249/64 52/250/64 46/247/64
f 49/251/64 50/252/64 47/253/64
f 50/252/64 51/249/64 47/253/64
f 47/253/64 48/254/64 49/251/64
f 113/255/64 45/218/64 46/247/64
f 45/218/64 47/253/64 51/249/64
f 3/248/64 113/255/64 46/247/64
f 45/218/64 51/249/64 46/247/64
f 79/49/64 81/53/64 76/45/64
f 17/246/64 16/256/64 1/257/64
f 3/248/64 17/246/64 1/257/64
f 76/45/64 17/246/64 3/248/64
f 4/258/64 2/259/64 16/256/64
f 2/259/64 1/257/64 16/256/64
f 6/260/64 5/261/64 22/262/64
f 5/261/64 4/258/64 22/262/64
f 8/263/64 7/264/64 6/260/64
f 20/265/64 9/266/64 23/267/64
f 9/266/64 8/263/64 6/260/64
f 21/268/64 36/269/64 20/265/64
f 23/267/64 24/270/64 20/265/64
f 24/270/64 21/268/64 20/265/64
f 16/256/64 22/262/64 4/258/64
f 22/262/64 23/267/64 6/260/64
f 9/266/64 6/260/64 23/267/64
f 140/68/33 137/271/33 138/69/33
f 113/255/64 122/188/64 140/217/64
f 140/217/64 142/219/64 45/218/64
f 140/217/64 45/218/64 113/255/64
f 138/69/67 137/271/67 135/71/67
f 141/272/95 136/72/95 135/71/95
f 135/71/95 142/273/95 141/272/95
f 141/73/3 142/274/3 140/68/3
f 171/74/68 178/275/68 177/75/68
f 173/77/46 174/276/46 204/78/46
f 204/78/47 175/132/47 176/80/47
f 151/81/69 165/130/69 166/82/69
f 188/84/70 192/129/70 191/85/70
f 177/75/71 178/275/71 188/84/71
f 160/87/39 154/103/39 153/88/39
f 186/90/72 205/101/72 206/91/72
f 201/93/73 183/99/73 184/94/73
f 145/96/59 143/118/59 144/97/59
f 183/99/74 161/277/74 162/100/74
f 205/101/75 168/137/75 167/102/75
f 154/103/38 190/108/38 189/104/38
f 169/105/53 163/136/53 164/106/53
f 190/108/37 148/138/37 147/109/37
f 156/110/45 174/276/45 173/77/45
f 82/30/61 177/166/61 83/63/61
f 177/166/61 187/278/61 83/63/61
f 87/35/61 88/33/61 82/30/61
f 85/39/61 86/37/61 82/30/61
f 86/37/61 87/35/61 82/30/61
f 83/63/61 84/41/61 85/39/61
f 53/114/61 83/63/61 147/279/61
f 53/114/61 149/280/61 185/112/61
f 59/281/61 53/114/61 57/282/61
f 57/282/61 58/283/61 59/281/61
f 55/284/61 56/285/61 57/282/61
f 54/145/61 55/284/61 57/282/61
f 152/286/61 166/147/61 54/145/61
f 144/287/61 152/286/61 54/145/61
f 149/280/61 53/114/61 147/279/61
f 83/63/61 85/39/61 82/30/61
f 187/278/61 191/288/61 83/63/61
f 191/288/61 159/289/61 83/63/61
f 54/145/61 57/282/61 53/114/61
f 146/290/61 144/287/61 54/145/61
f 180/291/61 146/290/61 54/145/61
f 54/145/61 53/114/61 180/291/61
f 159/289/61 153/292/61 83/63/61
f 153/292/61 189/293/61 83/63/61
f 181/294/61 180/291/61 53/114/61
f 167/295/61 181/294/61 53/114/61
f 189/293/61 147/279/61 83/63/61
f 206/113/61 167/295/61 53/114/61
f 182/115/57 179/140/57 180/116/57
f 143/118/76 151/81/76 152/83/76
f 158/119/44 156/110/44 155/111/44
f 199/121/52 169/105/52 170/107/52
f 193/123/50 195/141/50 196/124/50
f 149/126/77 150/296/77 186/127/77
f 192/129/40 160/87/40 159/89/40
f 165/130/78 197/139/78 198/131/78
f 175/132/79 171/74/79 172/76/79
f 61/220/64 165/221/64 151/297/64
f 61/220/64 151/297/64 143/298/64
f 66/299/64 67/300/64 61/220/64
f 64/301/64 65/302/64 61/220/64
f 65/302/64 66/299/64 61/220/64
f 62/303/64 63/304/64 64/301/64
f 89/42/64 60/134/64 148/305/64
f 60/134/64 62/303/64 61/220/64
f 148/305/64 60/134/64 150/306/64
f 95/40/64 89/42/64 93/36/64
f 93/36/64 94/38/64 95/40/64
f 91/31/64 92/34/64 93/36/64
f 90/32/64 91/31/64 93/36/64
f 188/307/64 178/185/64 89/42/64
f 178/185/64 90/32/64 89/42/64
f 192/308/64 188/307/64 89/42/64
f 62/303/64 64/301/64 61/220/64
f 61/220/64 143/298/64 145/309/64
f 61/220/64 145/309/64 179/310/64
f 150/306/64 60/134/64 186/133/64
f 90/32/64 93/36/64 89/42/64
f 160/311/64 192/308/64 89/42/64
f 154/312/64 160/311/64 89/42/64
f 61/220/64 179/310/64 60/134/64
f 179/310/64 182/313/64 60/134/64
f 190/314/64 154/312/64 89/42/64
f 148/305/64 190/314/64 89/42/64
f 182/313/64 168/315/64 60/134/64
f 168/315/64 205/135/64 60/134/64
f 163/136/80 201/93/80 202/95/80
f 168/137/56 182/115/56 181/117/56
f 148/138/81 150/296/81 149/126/81
f 162/100/82 161/277/82 158/119/82
f 197/139/83 193/123/83 194/125/83
f 179/140/58 145/96/58 146/98/58
f 195/141/51 199/121/51 200/122/51
